<?xml version="1.0" encoding="UTF-8" standalone="no"?><svg xmlns="http://www.w3.org/2000/svg" xmlns:xlink="http://www.w3.org/1999/xlink" contentScriptType="application/ecmascript" contentStyleType="text/css" height="432px" preserveAspectRatio="none" style="width:249px;height:432px;" version="1.1" viewBox="0 0 249 432" width="249px" zoomAndPan="magnify"><defs><filter height="300%" id="f11c991uqweuu4" width="300%" x="-1" y="-1"><feGaussianBlur result="blurOut" stdDeviation="2.0"/><feColorMatrix in="blurOut" result="blurOut2" type="matrix" values="0 0 0 0 0 0 0 0 0 0 0 0 0 0 0 0 0 0 .4 0"/><feOffset dx="4.0" dy="4.0" in="blurOut2" result="blurOut3"/><feBlend in="SourceGraphic" in2="blurOut3" mode="normal"/></filter></defs><g><rect fill="#FEFECE" filter="url(#f11c991uqweuu4)" height="33.9688" rx="12.5" ry="12.5" style="stroke: #A80036; stroke-width: 1.5;" width="104" x="72" y="10"/><text fill="#000000" font-family="sans-serif" font-size="12" lengthAdjust="spacingAndGlyphs" textLength="84" x="82" y="31.1387">Looper.loop()</text><rect fill="#FEFECE" filter="url(#f11c991uqweuu4)" height="33.9688" rx="12.5" ry="12.5" style="stroke: #A80036; stroke-width: 1.5;" width="158" x="45" y="63.9688"/><text fill="#000000" font-family="sans-serif" font-size="12" lengthAdjust="spacingAndGlyphs" textLength="138" x="55" y="85.1074">MessageQueue.next()</text><rect fill="#FEFECE" filter="url(#f11c991uqweuu4)" height="33.9688" rx="12.5" ry="12.5" style="stroke: #A80036; stroke-width: 1.5;" width="223" x="12.5" y="117.9375"/><text fill="#000000" font-family="sans-serif" font-size="12" lengthAdjust="spacingAndGlyphs" textLength="203" x="22.5" y="139.0762">MessageQueue.nativePollOnce()</text><rect fill="#FF00FF" filter="url(#f11c991uqweuu4)" height="33.9688" style="stroke: #A80036; stroke-width: 1.5;" width="107" x="70.5" y="171.9063"/><text fill="#000000" font-family="sans-serif" font-size="12" lengthAdjust="spacingAndGlyphs" textLength="15" x="116.5" y="193.0449">JNI</text><rect fill="#FEFECE" filter="url(#f11c991uqweuu4)" height="33.9688" rx="12.5" ry="12.5" style="stroke: #A80036; stroke-width: 1.5;" width="228" x="10" y="225.875"/><text fill="#000000" font-family="sans-serif" font-size="12" lengthAdjust="spacingAndGlyphs" textLength="208" x="20" y="247.0137">NativeMessageQueue::pollOnce()</text><rect fill="#FEFECE" filter="url(#f11c991uqweuu4)" height="33.9688" rx="12.5" ry="12.5" style="stroke: #A80036; stroke-width: 1.5;" width="135" x="56.5" y="279.8438"/><text fill="#000000" font-family="sans-serif" font-size="12" lengthAdjust="spacingAndGlyphs" textLength="115" x="66.5" y="300.9824">Looper::pollOnce()</text><rect fill="#FEFECE" filter="url(#f11c991uqweuu4)" height="33.9688" rx="12.5" ry="12.5" style="stroke: #A80036; stroke-width: 1.5;" width="217" x="15.5" y="333.8125"/><text fill="#000000" font-family="sans-serif" font-size="12" lengthAdjust="spacingAndGlyphs" textLength="197" x="25.5" y="354.9512">Looper::pollInnter(timeoutMillis)</text><rect fill="#B0C4DE" filter="url(#f11c991uqweuu4)" height="33.9688" rx="12.5" ry="12.5" style="stroke: #A80036; stroke-width: 1.5;" width="91" x="78.5" y="387.7813"/><text fill="#000000" font-family="sans-serif" font-size="12" lengthAdjust="spacingAndGlyphs" textLength="71" x="88.5" y="408.9199">epoll_wait()</text><line style="stroke: #A80036; stroke-width: 1.5;" x1="124" x2="124" y1="43.9688" y2="63.9688"/><polygon fill="#A80036" points="120,53.9688,124,63.9688,128,53.9688,124,57.9688" style="stroke: #A80036; stroke-width: 1.0;"/><line style="stroke: #A80036; stroke-width: 1.5;" x1="124" x2="124" y1="97.9375" y2="117.9375"/><polygon fill="#A80036" points="120,107.9375,124,117.9375,128,107.9375,124,111.9375" style="stroke: #A80036; stroke-width: 1.0;"/><line style="stroke: #A80036; stroke-width: 1.5;" x1="124" x2="124" y1="151.9063" y2="171.9063"/><polygon fill="#A80036" points="120,161.9063,124,171.9063,128,161.9063,124,165.9063" style="stroke: #A80036; stroke-width: 1.0;"/><line style="stroke: #A80036; stroke-width: 1.5;" x1="124" x2="124" y1="205.875" y2="225.875"/><polygon fill="#A80036" points="120,215.875,124,225.875,128,215.875,124,219.875" style="stroke: #A80036; stroke-width: 1.0;"/><line style="stroke: #A80036; stroke-width: 1.5;" x1="124" x2="124" y1="259.8438" y2="279.8438"/><polygon fill="#A80036" points="120,269.8438,124,279.8438,128,269.8438,124,273.8438" style="stroke: #A80036; stroke-width: 1.0;"/><line style="stroke: #A80036; stroke-width: 1.5;" x1="124" x2="124" y1="313.8125" y2="333.8125"/><polygon fill="#A80036" points="120,323.8125,124,333.8125,128,323.8125,124,327.8125" style="stroke: #A80036; stroke-width: 1.0;"/><line style="stroke: #A80036; stroke-width: 1.5;" x1="124" x2="124" y1="367.7813" y2="387.7813"/><polygon fill="#A80036" points="120,377.7813,124,387.7813,128,377.7813,124,381.7813" style="stroke: #A80036; stroke-width: 1.0;"/><!--MD5=[6858e7ced72eaebb0210fa3729e62df8]
@startuml
:Looper.loop();
:MessageQueue.next();
:MessageQueue.nativePollOnce();
#Fuchsia:         JNI         ]
:NativeMessageQueue::pollOnce();
:Looper::pollOnce();
:Looper::pollInnter(timeoutMillis);
#LightSteelBlue:epoll_wait();
@enduml

PlantUML version 1.2020.00(Sat Jan 11 12:30:53 UTC 2020)
(GPL source distribution)
Java Runtime: Java(TM) SE Runtime Environment
JVM: Java HotSpot(TM) 64-Bit Server VM
Java Version: 1.7.0_25-b15
Operating System: Linux
Default Encoding: UTF-8
Language: en
Country: US
--></g></svg>