<?xml version="1.0" encoding="UTF-8" standalone="no"?><svg xmlns="http://www.w3.org/2000/svg" xmlns:xlink="http://www.w3.org/1999/xlink" contentScriptType="application/ecmascript" contentStyleType="text/css" height="378px" preserveAspectRatio="none" style="width:216px;height:378px;" version="1.1" viewBox="0 0 216 378" width="216px" zoomAndPan="magnify"><defs><filter height="300%" id="fbmn5qelw15bd" width="300%" x="-1" y="-1"><feGaussianBlur result="blurOut" stdDeviation="2.0"/><feColorMatrix in="blurOut" result="blurOut2" type="matrix" values="0 0 0 0 0 0 0 0 0 0 0 0 0 0 0 0 0 0 .4 0"/><feOffset dx="4.0" dy="4.0" in="blurOut2" result="blurOut3"/><feBlend in="SourceGraphic" in2="blurOut3" mode="normal"/></filter></defs><g><rect fill="#FEFECE" filter="url(#fbmn5qelw15bd)" height="33.9688" rx="12.5" ry="12.5" style="stroke: #A80036; stroke-width: 1.5;" width="156" x="29.5" y="10"/><text fill="#000000" font-family="sans-serif" font-size="12" lengthAdjust="spacingAndGlyphs" textLength="136" x="39.5" y="31.1387">new MessageQueue()</text><rect fill="#FEFECE" filter="url(#fbmn5qelw15bd)" height="33.9688" rx="12.5" ry="12.5" style="stroke: #A80036; stroke-width: 1.5;" width="87" x="64" y="63.9688"/><text fill="#000000" font-family="sans-serif" font-size="12" lengthAdjust="spacingAndGlyphs" textLength="67" x="74" y="85.1074">nativeInit()</text><rect fill="#FF00FF" filter="url(#fbmn5qelw15bd)" height="33.9688" style="stroke: #A80036; stroke-width: 1.5;" width="107" x="54" y="117.9375"/><text fill="#000000" font-family="sans-serif" font-size="12" lengthAdjust="spacingAndGlyphs" textLength="15" x="100" y="139.0762">JNI</text><rect fill="#FEFECE" filter="url(#fbmn5qelw15bd)" height="33.9688" rx="12.5" ry="12.5" style="stroke: #A80036; stroke-width: 1.5;" width="195" x="10" y="171.9063"/><text fill="#000000" font-family="sans-serif" font-size="12" lengthAdjust="spacingAndGlyphs" textLength="175" x="20" y="193.0449">new NativeMessageQueue()</text><rect fill="#FEFECE" filter="url(#fbmn5qelw15bd)" height="33.9688" rx="12.5" ry="12.5" style="stroke: #A80036; stroke-width: 1.5;" width="102" x="56.5" y="225.875"/><text fill="#000000" font-family="sans-serif" font-size="12" lengthAdjust="spacingAndGlyphs" textLength="82" x="66.5" y="247.0137">new Looper()</text><rect fill="#FEFECE" filter="url(#fbmn5qelw15bd)" height="33.9688" rx="12.5" ry="12.5" style="stroke: #A80036; stroke-width: 1.5;" width="147" x="34" y="279.8438"/><text fill="#000000" font-family="sans-serif" font-size="12" lengthAdjust="spacingAndGlyphs" textLength="127" x="44" y="300.9824">rebuildEpollLocked()</text><rect fill="#B0C4DE" filter="url(#fbmn5qelw15bd)" height="33.9688" rx="12.5" ry="12.5" style="stroke: #A80036; stroke-width: 1.5;" width="186" x="14.5" y="333.8125"/><text fill="#000000" font-family="sans-serif" font-size="12" lengthAdjust="spacingAndGlyphs" textLength="166" x="24.5" y="354.9512">epoll_create() &amp; epoll_ctl()</text><line style="stroke: #A80036; stroke-width: 1.5;" x1="107.5" x2="107.5" y1="43.9688" y2="63.9688"/><polygon fill="#A80036" points="103.5,53.9688,107.5,63.9688,111.5,53.9688,107.5,57.9688" style="stroke: #A80036; stroke-width: 1.0;"/><line style="stroke: #A80036; stroke-width: 1.5;" x1="107.5" x2="107.5" y1="97.9375" y2="117.9375"/><polygon fill="#A80036" points="103.5,107.9375,107.5,117.9375,111.5,107.9375,107.5,111.9375" style="stroke: #A80036; stroke-width: 1.0;"/><line style="stroke: #A80036; stroke-width: 1.5;" x1="107.5" x2="107.5" y1="151.9063" y2="171.9063"/><polygon fill="#A80036" points="103.5,161.9063,107.5,171.9063,111.5,161.9063,107.5,165.9063" style="stroke: #A80036; stroke-width: 1.0;"/><line style="stroke: #A80036; stroke-width: 1.5;" x1="107.5" x2="107.5" y1="205.875" y2="225.875"/><polygon fill="#A80036" points="103.5,215.875,107.5,225.875,111.5,215.875,107.5,219.875" style="stroke: #A80036; stroke-width: 1.0;"/><line style="stroke: #A80036; stroke-width: 1.5;" x1="107.5" x2="107.5" y1="259.8438" y2="279.8438"/><polygon fill="#A80036" points="103.5,269.8438,107.5,279.8438,111.5,269.8438,107.5,273.8438" style="stroke: #A80036; stroke-width: 1.0;"/><line style="stroke: #A80036; stroke-width: 1.5;" x1="107.5" x2="107.5" y1="313.8125" y2="333.8125"/><polygon fill="#A80036" points="103.5,323.8125,107.5,333.8125,111.5,323.8125,107.5,327.8125" style="stroke: #A80036; stroke-width: 1.0;"/><!--MD5=[e8331f9f3bb4d7f7b7fe98d5f72bb01b]
@startuml
:new MessageQueue();
:nativeInit();
#Fuchsia:         JNI         ]
:new NativeMessageQueue();
:new Looper();
:rebuildEpollLocked();
#LightSteelBlue:epoll_create() & epoll_ctl();
@enduml

PlantUML version 1.2020.00(Sat Jan 11 12:30:53 UTC 2020)
(GPL source distribution)
Java Runtime: Java(TM) SE Runtime Environment
JVM: Java HotSpot(TM) 64-Bit Server VM
Java Version: 1.7.0_25-b15
Operating System: Linux
Default Encoding: UTF-8
Language: en
Country: US
--></g></svg>