<?xml version="1.0" encoding="UTF-8" standalone="no"?><svg xmlns="http://www.w3.org/2000/svg" xmlns:xlink="http://www.w3.org/1999/xlink" contentScriptType="application/ecmascript" contentStyleType="text/css" height="432px" preserveAspectRatio="none" style="width:256px;height:432px;" version="1.1" viewBox="0 0 256 432" width="256px" zoomAndPan="magnify"><defs><filter height="300%" id="fad5oohl4r3v0" width="300%" x="-1" y="-1"><feGaussianBlur result="blurOut" stdDeviation="2.0"/><feColorMatrix in="blurOut" result="blurOut2" type="matrix" values="0 0 0 0 0 0 0 0 0 0 0 0 0 0 0 0 0 0 .4 0"/><feOffset dx="4.0" dy="4.0" in="blurOut2" result="blurOut3"/><feBlend in="SourceGraphic" in2="blurOut3" mode="normal"/></filter></defs><g><rect fill="#FEFECE" filter="url(#fad5oohl4r3v0)" height="33.9688" rx="12.5" ry="12.5" style="stroke: #A80036; stroke-width: 1.5;" width="170" x="42.5" y="10"/><text fill="#000000" font-family="sans-serif" font-size="12" lengthAdjust="spacingAndGlyphs" textLength="150" x="52.5" y="31.1387">Handler.sendMessage()</text><rect fill="#FEFECE" filter="url(#fad5oohl4r3v0)" height="33.9688" rx="12.5" ry="12.5" style="stroke: #A80036; stroke-width: 1.5;" width="195" x="30" y="63.9688"/><text fill="#000000" font-family="sans-serif" font-size="12" lengthAdjust="spacingAndGlyphs" textLength="175" x="40" y="85.1074">Handler.enqueueMessage()</text><rect fill="#FEFECE" filter="url(#fad5oohl4r3v0)" height="33.9688" rx="12.5" ry="12.5" style="stroke: #A80036; stroke-width: 1.5;" width="235" x="10" y="117.9375"/><text fill="#000000" font-family="sans-serif" font-size="12" lengthAdjust="spacingAndGlyphs" textLength="215" x="20" y="139.0762">MessageQeue.enqueueMessage()</text><rect fill="#FEFECE" filter="url(#fad5oohl4r3v0)" height="33.9688" rx="12.5" ry="12.5" style="stroke: #A80036; stroke-width: 1.5;" width="102" x="76.5" y="171.9063"/><text fill="#000000" font-family="sans-serif" font-size="12" lengthAdjust="spacingAndGlyphs" textLength="82" x="86.5" y="193.0449">nativeWake()</text><rect fill="#FF00FF" filter="url(#fad5oohl4r3v0)" height="33.9688" style="stroke: #A80036; stroke-width: 1.5;" width="107" x="74" y="225.875"/><text fill="#000000" font-family="sans-serif" font-size="12" lengthAdjust="spacingAndGlyphs" textLength="15" x="120" y="247.0137">JNI</text><rect fill="#FEFECE" filter="url(#fad5oohl4r3v0)" height="33.9688" rx="12.5" ry="12.5" style="stroke: #A80036; stroke-width: 1.5;" width="206" x="24.5" y="279.8438"/><text fill="#000000" font-family="sans-serif" font-size="12" lengthAdjust="spacingAndGlyphs" textLength="186" x="34.5" y="300.9824">NativeMessageQueue::wake()</text><rect fill="#FEFECE" filter="url(#fad5oohl4r3v0)" height="33.9688" rx="12.5" ry="12.5" style="stroke: #A80036; stroke-width: 1.5;" width="113" x="71" y="333.8125"/><text fill="#000000" font-family="sans-serif" font-size="12" lengthAdjust="spacingAndGlyphs" textLength="93" x="81" y="354.9512">Looper::wake()</text><rect fill="#B0C4DE" filter="url(#fad5oohl4r3v0)" height="33.9688" rx="12.5" ry="12.5" style="stroke: #A80036; stroke-width: 1.5;" width="60" x="97.5" y="387.7813"/><text fill="#000000" font-family="sans-serif" font-size="12" lengthAdjust="spacingAndGlyphs" textLength="40" x="107.5" y="408.9199">write()</text><line style="stroke: #A80036; stroke-width: 1.5;" x1="127.5" x2="127.5" y1="43.9688" y2="63.9688"/><polygon fill="#A80036" points="123.5,53.9688,127.5,63.9688,131.5,53.9688,127.5,57.9688" style="stroke: #A80036; stroke-width: 1.0;"/><line style="stroke: #A80036; stroke-width: 1.5;" x1="127.5" x2="127.5" y1="97.9375" y2="117.9375"/><polygon fill="#A80036" points="123.5,107.9375,127.5,117.9375,131.5,107.9375,127.5,111.9375" style="stroke: #A80036; stroke-width: 1.0;"/><line style="stroke: #A80036; stroke-width: 1.5;" x1="127.5" x2="127.5" y1="151.9063" y2="171.9063"/><polygon fill="#A80036" points="123.5,161.9063,127.5,171.9063,131.5,161.9063,127.5,165.9063" style="stroke: #A80036; stroke-width: 1.0;"/><line style="stroke: #A80036; stroke-width: 1.5;" x1="127.5" x2="127.5" y1="205.875" y2="225.875"/><polygon fill="#A80036" points="123.5,215.875,127.5,225.875,131.5,215.875,127.5,219.875" style="stroke: #A80036; stroke-width: 1.0;"/><line style="stroke: #A80036; stroke-width: 1.5;" x1="127.5" x2="127.5" y1="259.8438" y2="279.8438"/><polygon fill="#A80036" points="123.5,269.8438,127.5,279.8438,131.5,269.8438,127.5,273.8438" style="stroke: #A80036; stroke-width: 1.0;"/><line style="stroke: #A80036; stroke-width: 1.5;" x1="127.5" x2="127.5" y1="313.8125" y2="333.8125"/><polygon fill="#A80036" points="123.5,323.8125,127.5,333.8125,131.5,323.8125,127.5,327.8125" style="stroke: #A80036; stroke-width: 1.0;"/><line style="stroke: #A80036; stroke-width: 1.5;" x1="127.5" x2="127.5" y1="367.7813" y2="387.7813"/><polygon fill="#A80036" points="123.5,377.7813,127.5,387.7813,131.5,377.7813,127.5,381.7813" style="stroke: #A80036; stroke-width: 1.0;"/><!--MD5=[bda55a6e465b07e58356ab1d4a6ea397]
@startuml
:Handler.sendMessage();
:Handler.enqueueMessage();
:MessageQeue.enqueueMessage();
:nativeWake();
#Fuchsia:         JNI         ]
:NativeMessageQueue::wake();
:Looper::wake();
#LightSteelBlue:write();
@enduml

PlantUML version 1.2020.00(Sat Jan 11 12:30:53 UTC 2020)
(GPL source distribution)
Java Runtime: Java(TM) SE Runtime Environment
JVM: Java HotSpot(TM) 64-Bit Server VM
Java Version: 1.7.0_25-b15
Operating System: Linux
Default Encoding: UTF-8
Language: en
Country: US
--></g></svg>