<?xml version="1.0" encoding="UTF-8" standalone="no"?><svg xmlns="http://www.w3.org/2000/svg" xmlns:xlink="http://www.w3.org/1999/xlink" contentScriptType="application/ecmascript" contentStyleType="text/css" height="839px" preserveAspectRatio="none" style="width:1222px;height:839px;" version="1.1" viewBox="0 0 1222 839" width="1222px" zoomAndPan="magnify"><defs><filter height="300%" id="f1ot1ahp1d4vaw" width="300%" x="-1" y="-1"><feGaussianBlur result="blurOut" stdDeviation="2.0"/><feColorMatrix in="blurOut" result="blurOut2" type="matrix" values="0 0 0 0 0 0 0 0 0 0 0 0 0 0 0 0 0 0 .4 0"/><feOffset dx="4.0" dy="4.0" in="blurOut2" result="blurOut3"/><feBlend in="SourceGraphic" in2="blurOut3" mode="normal"/></filter></defs><g><rect fill="#FFFFFF" filter="url(#f1ot1ahp1d4vaw)" height="175.7305" style="stroke: #A80036; stroke-width: 1.0;" width="10" x="94" y="69.7988"/><rect fill="#FFFFFF" filter="url(#f1ot1ahp1d4vaw)" height="138.4199" style="stroke: #A80036; stroke-width: 1.0;" width="10" x="99" y="107.1094"/><rect fill="#FFFFFF" filter="url(#f1ot1ahp1d4vaw)" height="74.7988" style="stroke: #A80036; stroke-width: 1.0;" width="10" x="260" y="141.4199"/><rect fill="#FFFFFF" filter="url(#f1ot1ahp1d4vaw)" height="34.3105" style="stroke: #A80036; stroke-width: 1.0;" width="10" x="387" y="746.5664"/><rect fill="#FFFFFF" filter="url(#f1ot1ahp1d4vaw)" height="216.2422" style="stroke: #A80036; stroke-width: 1.0;" width="10" x="714" y="274.8398"/><rect fill="#FFFFFF" filter="url(#f1ot1ahp1d4vaw)" height="28" style="stroke: #A80036; stroke-width: 1.0;" width="10" x="719" y="312.1504"/><rect fill="#FFFFFF" filter="url(#f1ot1ahp1d4vaw)" height="28" style="stroke: #A80036; stroke-width: 1.0;" width="10" x="719" y="384.4609"/><rect fill="#FFFFFF" filter="url(#f1ot1ahp1d4vaw)" height="34.3105" style="stroke: #A80036; stroke-width: 1.0;" width="10" x="719" y="456.7715"/><rect fill="#FFFFFF" filter="url(#f1ot1ahp1d4vaw)" height="29.3105" style="stroke: #A80036; stroke-width: 1.0;" width="10" x="714" y="679.9453"/><rect fill="#FFFFFF" filter="url(#f1ot1ahp1d4vaw)" height="71.6211" style="stroke: #A80036; stroke-width: 1.0;" width="10" x="921" y="491.082"/><rect fill="#FFFFFF" filter="url(#f1ot1ahp1d4vaw)" height="87.9316" style="stroke: #A80036; stroke-width: 1.0;" width="10" x="1076" y="562.7031"/><rect fill="#FFFFFF" filter="url(#f1ot1ahp1d4vaw)" height="29.3105" style="stroke: #A80036; stroke-width: 1.0;" width="10" x="1177" y="592.0137"/><rect fill="#FEFECE" filter="url(#f1ot1ahp1d4vaw)" height="30.4883" style="stroke: #A80036; stroke-width: 1.5;" width="135" x="322.5" y="149.4199"/><text fill="#000000" font-family="sans-serif" font-size="14" lengthAdjust="spacingAndGlyphs" textLength="121" x="329.5" y="169.9551">ServiceDispatcher</text><line style="stroke: #A80036; stroke-width: 1.0; stroke-dasharray: 5.0,5.0;" x1="98.5" x2="98.5" y1="38.4883" y2="798.877"/><line style="stroke: #A80036; stroke-width: 1.0; stroke-dasharray: 5.0,5.0;" x1="264.5" x2="264.5" y1="38.4883" y2="798.877"/><line style="stroke: #A80036; stroke-width: 1.0; stroke-dasharray: 5.0,5.0;" x1="391.5" x2="391.5" y1="182.1641" y2="798.877"/><line style="stroke: #A80036; stroke-width: 1.0; stroke-dasharray: 5.0,5.0;" x1="558.5" x2="558.5" y1="38.4883" y2="798.877"/><line style="stroke: #A80036; stroke-width: 1.0; stroke-dasharray: 5.0,5.0;" x1="719" x2="719" y1="38.4883" y2="798.877"/><line style="stroke: #A80036; stroke-width: 1.0; stroke-dasharray: 5.0,5.0;" x1="925.5" x2="925.5" y1="38.4883" y2="798.877"/><line style="stroke: #A80036; stroke-width: 1.0; stroke-dasharray: 5.0,5.0;" x1="1081" x2="1081" y1="38.4883" y2="798.877"/><line style="stroke: #A80036; stroke-width: 1.0; stroke-dasharray: 5.0,5.0;" x1="1182" x2="1182" y1="38.4883" y2="798.877"/><rect fill="#FEFECE" filter="url(#f1ot1ahp1d4vaw)" height="30.4883" style="stroke: #A80036; stroke-width: 1.5;" width="99" x="47.5" y="3"/><text fill="#000000" font-family="sans-serif" font-size="14" lengthAdjust="spacingAndGlyphs" textLength="85" x="54.5" y="23.5352">ContextImpl</text><rect fill="#FEFECE" filter="url(#f1ot1ahp1d4vaw)" height="30.4883" style="stroke: #A80036; stroke-width: 1.5;" width="99" x="47.5" y="797.877"/><text fill="#000000" font-family="sans-serif" font-size="14" lengthAdjust="spacingAndGlyphs" textLength="85" x="54.5" y="818.4121">ContextImpl</text><rect fill="#FEFECE" filter="url(#f1ot1ahp1d4vaw)" height="30.4883" style="stroke: #A80036; stroke-width: 1.5;" width="91" x="217.5" y="3"/><text fill="#000000" font-family="sans-serif" font-size="14" lengthAdjust="spacingAndGlyphs" textLength="77" x="224.5" y="23.5352">LoadedApk</text><rect fill="#FEFECE" filter="url(#f1ot1ahp1d4vaw)" height="30.4883" style="stroke: #A80036; stroke-width: 1.5;" width="91" x="217.5" y="797.877"/><text fill="#000000" font-family="sans-serif" font-size="14" lengthAdjust="spacingAndGlyphs" textLength="77" x="224.5" y="818.4121">LoadedApk</text><rect fill="#FEFECE" filter="url(#f1ot1ahp1d4vaw)" height="30.4883" style="stroke: #A80036; stroke-width: 1.5;" width="135" x="322.5" y="797.877"/><text fill="#000000" font-family="sans-serif" font-size="14" lengthAdjust="spacingAndGlyphs" textLength="121" x="329.5" y="818.4121">ServiceDispatcher</text><rect fill="#FEFECE" filter="url(#f1ot1ahp1d4vaw)" height="30.4883" style="stroke: #A80036; stroke-width: 1.5;" width="171" x="471.5" y="3"/><text fill="#000000" font-family="sans-serif" font-size="14" lengthAdjust="spacingAndGlyphs" textLength="157" x="478.5" y="23.5352">ActivityManagerService</text><rect fill="#FEFECE" filter="url(#f1ot1ahp1d4vaw)" height="30.4883" style="stroke: #A80036; stroke-width: 1.5;" width="171" x="471.5" y="797.877"/><text fill="#000000" font-family="sans-serif" font-size="14" lengthAdjust="spacingAndGlyphs" textLength="157" x="478.5" y="818.4121">ActivityManagerService</text><rect fill="#FEFECE" filter="url(#f1ot1ahp1d4vaw)" height="30.4883" style="stroke: #A80036; stroke-width: 1.5;" width="110" x="662" y="3"/><text fill="#000000" font-family="sans-serif" font-size="14" lengthAdjust="spacingAndGlyphs" textLength="96" x="669" y="23.5352">ActiveServices</text><rect fill="#FEFECE" filter="url(#f1ot1ahp1d4vaw)" height="30.4883" style="stroke: #A80036; stroke-width: 1.5;" width="110" x="662" y="797.877"/><text fill="#000000" font-family="sans-serif" font-size="14" lengthAdjust="spacingAndGlyphs" textLength="96" x="669" y="818.4121">ActiveServices</text><rect fill="#FEFECE" filter="url(#f1ot1ahp1d4vaw)" height="30.4883" style="stroke: #A80036; stroke-width: 1.5;" width="141" x="853.5" y="3"/><text fill="#000000" font-family="sans-serif" font-size="14" lengthAdjust="spacingAndGlyphs" textLength="127" x="860.5" y="23.5352">ApplicationThread</text><rect fill="#FEFECE" filter="url(#f1ot1ahp1d4vaw)" height="30.4883" style="stroke: #A80036; stroke-width: 1.5;" width="141" x="853.5" y="797.877"/><text fill="#000000" font-family="sans-serif" font-size="14" lengthAdjust="spacingAndGlyphs" textLength="127" x="860.5" y="818.4121">ApplicationThread</text><rect fill="#FEFECE" filter="url(#f1ot1ahp1d4vaw)" height="30.4883" style="stroke: #A80036; stroke-width: 1.5;" width="112" x="1023" y="3"/><text fill="#000000" font-family="sans-serif" font-size="14" lengthAdjust="spacingAndGlyphs" textLength="98" x="1030" y="23.5352">ActivityThread</text><rect fill="#FEFECE" filter="url(#f1ot1ahp1d4vaw)" height="30.4883" style="stroke: #A80036; stroke-width: 1.5;" width="112" x="1023" y="797.877"/><text fill="#000000" font-family="sans-serif" font-size="14" lengthAdjust="spacingAndGlyphs" textLength="98" x="1030" y="818.4121">ActivityThread</text><rect fill="#FEFECE" filter="url(#f1ot1ahp1d4vaw)" height="30.4883" style="stroke: #A80036; stroke-width: 1.5;" width="62" x="1149" y="3"/><text fill="#000000" font-family="sans-serif" font-size="14" lengthAdjust="spacingAndGlyphs" textLength="48" x="1156" y="23.5352">Service</text><rect fill="#FEFECE" filter="url(#f1ot1ahp1d4vaw)" height="30.4883" style="stroke: #A80036; stroke-width: 1.5;" width="62" x="1149" y="797.877"/><text fill="#000000" font-family="sans-serif" font-size="14" lengthAdjust="spacingAndGlyphs" textLength="48" x="1156" y="818.4121">Service</text><rect fill="#FFFFFF" filter="url(#f1ot1ahp1d4vaw)" height="175.7305" style="stroke: #A80036; stroke-width: 1.0;" width="10" x="94" y="69.7988"/><rect fill="#FFFFFF" filter="url(#f1ot1ahp1d4vaw)" height="138.4199" style="stroke: #A80036; stroke-width: 1.0;" width="10" x="99" y="107.1094"/><rect fill="#FFFFFF" filter="url(#f1ot1ahp1d4vaw)" height="74.7988" style="stroke: #A80036; stroke-width: 1.0;" width="10" x="260" y="141.4199"/><rect fill="#FFFFFF" filter="url(#f1ot1ahp1d4vaw)" height="34.3105" style="stroke: #A80036; stroke-width: 1.0;" width="10" x="387" y="746.5664"/><rect fill="#FFFFFF" filter="url(#f1ot1ahp1d4vaw)" height="216.2422" style="stroke: #A80036; stroke-width: 1.0;" width="10" x="714" y="274.8398"/><rect fill="#FFFFFF" filter="url(#f1ot1ahp1d4vaw)" height="28" style="stroke: #A80036; stroke-width: 1.0;" width="10" x="719" y="312.1504"/><rect fill="#FFFFFF" filter="url(#f1ot1ahp1d4vaw)" height="28" style="stroke: #A80036; stroke-width: 1.0;" width="10" x="719" y="384.4609"/><rect fill="#FFFFFF" filter="url(#f1ot1ahp1d4vaw)" height="34.3105" style="stroke: #A80036; stroke-width: 1.0;" width="10" x="719" y="456.7715"/><rect fill="#FFFFFF" filter="url(#f1ot1ahp1d4vaw)" height="29.3105" style="stroke: #A80036; stroke-width: 1.0;" width="10" x="714" y="679.9453"/><rect fill="#FFFFFF" filter="url(#f1ot1ahp1d4vaw)" height="71.6211" style="stroke: #A80036; stroke-width: 1.0;" width="10" x="921" y="491.082"/><rect fill="#FFFFFF" filter="url(#f1ot1ahp1d4vaw)" height="87.9316" style="stroke: #A80036; stroke-width: 1.0;" width="10" x="1076" y="562.7031"/><rect fill="#FFFFFF" filter="url(#f1ot1ahp1d4vaw)" height="29.3105" style="stroke: #A80036; stroke-width: 1.0;" width="10" x="1177" y="592.0137"/><polygon fill="#A80036" points="82,65.7988,92,69.7988,82,73.7988,86,69.7988" style="stroke: #A80036; stroke-width: 1.0;"/><line style="stroke: #A80036; stroke-width: 1.0;" x1="3" x2="88" y1="69.7988" y2="69.7988"/><text fill="#000000" font-family="sans-serif" font-size="13" lengthAdjust="spacingAndGlyphs" textLength="72" x="10" y="65.0566">bindService</text><line style="stroke: #A80036; stroke-width: 1.0;" x1="104" x2="151" y1="94.1094" y2="94.1094"/><line style="stroke: #A80036; stroke-width: 1.0;" x1="151" x2="151" y1="94.1094" y2="107.1094"/><line style="stroke: #A80036; stroke-width: 1.0;" x1="110" x2="151" y1="107.1094" y2="107.1094"/><polygon fill="#A80036" points="120,103.1094,110,107.1094,120,111.1094,116,107.1094" style="stroke: #A80036; stroke-width: 1.0;"/><text fill="#000000" font-family="sans-serif" font-size="13" lengthAdjust="spacingAndGlyphs" textLength="129" x="116" y="89.3672">bindServiceCommon</text><polygon fill="#A80036" points="248,137.4199,258,141.4199,248,145.4199,252,141.4199" style="stroke: #A80036; stroke-width: 1.0;"/><line style="stroke: #A80036; stroke-width: 1.0;" x1="109" x2="254" y1="141.4199" y2="141.4199"/><text fill="#000000" font-family="sans-serif" font-size="13" lengthAdjust="spacingAndGlyphs" textLength="132" x="116" y="136.6777">getServiceDispatcher</text><polygon fill="#A80036" points="310.5,166.7305,320.5,170.7305,310.5,174.7305,314.5,170.7305" style="stroke: #A80036; stroke-width: 1.0;"/><line style="stroke: #A80036; stroke-width: 1.0;" x1="270" x2="316.5" y1="170.7305" y2="170.7305"/><text fill="#000000" font-family="sans-serif" font-size="13" font-style="italic" lengthAdjust="spacingAndGlyphs" textLength="25" x="277" y="165.9883">new</text><rect fill="#FEFECE" filter="url(#f1ot1ahp1d4vaw)" height="30.4883" style="stroke: #A80036; stroke-width: 1.5;" width="135" x="322.5" y="149.4199"/><text fill="#000000" font-family="sans-serif" font-size="14" lengthAdjust="spacingAndGlyphs" textLength="121" x="329.5" y="169.9551">ServiceDispatcher</text><polygon fill="#A80036" points="120,212.2188,110,216.2188,120,220.2188,116,216.2188" style="stroke: #A80036; stroke-width: 1.0;"/><line style="stroke: #A80036; stroke-width: 1.0; stroke-dasharray: 2.0,2.0;" x1="114" x2="264" y1="216.2188" y2="216.2188"/><text fill="#000000" font-family="sans-serif" font-size="13" lengthAdjust="spacingAndGlyphs" textLength="120" x="126" y="211.4766">IServiceConnection</text><polygon fill="#A80036" points="547,241.5293,557,245.5293,547,249.5293,551,245.5293" style="stroke: #A80036; stroke-width: 1.0;"/><line style="stroke: #A80036; stroke-width: 1.0;" x1="99" x2="553" y1="245.5293" y2="245.5293"/><text fill="#000000" font-family="sans-serif" font-size="13" lengthAdjust="spacingAndGlyphs" textLength="148" x="106" y="240.7871">  bindIsolatedService</text><polygon fill="#A80036" points="702,270.8398,712,274.8398,702,278.8398,706,274.8398" style="stroke: #A80036; stroke-width: 1.0;"/><line style="stroke: #A80036; stroke-width: 1.0;" x1="559" x2="708" y1="274.8398" y2="274.8398"/><text fill="#000000" font-family="sans-serif" font-size="13" lengthAdjust="spacingAndGlyphs" textLength="117" x="566" y="270.0977">bindServiceLocked</text><line style="stroke: #A80036; stroke-width: 1.0;" x1="729" x2="771" y1="304.1504" y2="304.1504"/><line style="stroke: #A80036; stroke-width: 1.0;" x1="771" x2="771" y1="304.1504" y2="317.1504"/><line style="stroke: #A80036; stroke-width: 1.0;" x1="730" x2="771" y1="317.1504" y2="317.1504"/><polygon fill="#A80036" points="740,313.1504,730,317.1504,740,321.1504,736,317.1504" style="stroke: #A80036; stroke-width: 1.0;"/><text fill="#000000" font-family="sans-serif" font-size="13" lengthAdjust="spacingAndGlyphs" textLength="136" x="736" y="299.4082">retrieveServiceLocked</text><line style="stroke: #A80036; stroke-width: 1.0;" x1="729" x2="771" y1="376.4609" y2="376.4609"/><line style="stroke: #A80036; stroke-width: 1.0;" x1="771" x2="771" y1="376.4609" y2="389.4609"/><line style="stroke: #A80036; stroke-width: 1.0;" x1="730" x2="771" y1="389.4609" y2="389.4609"/><polygon fill="#A80036" points="740,385.4609,730,389.4609,740,393.4609,736,389.4609" style="stroke: #A80036; stroke-width: 1.0;"/><text fill="#000000" font-family="sans-serif" font-size="13" lengthAdjust="spacingAndGlyphs" textLength="139" x="736" y="371.7188">bringUpServiceLocked</text><line style="stroke: #A80036; stroke-width: 1.0;" x1="724" x2="771" y1="443.7715" y2="443.7715"/><line style="stroke: #A80036; stroke-width: 1.0;" x1="771" x2="771" y1="443.7715" y2="456.7715"/><line style="stroke: #A80036; stroke-width: 1.0;" x1="730" x2="771" y1="456.7715" y2="456.7715"/><polygon fill="#A80036" points="740,452.7715,730,456.7715,740,460.7715,736,456.7715" style="stroke: #A80036; stroke-width: 1.0;"/><text fill="#000000" font-family="sans-serif" font-size="13" lengthAdjust="spacingAndGlyphs" textLength="183" x="736" y="439.0293">requestServiceBindingLocked</text><polygon fill="#A80036" points="909,487.082,919,491.082,909,495.082,913,491.082" style="stroke: #A80036; stroke-width: 1.0;"/><line style="stroke: #A80036; stroke-width: 1.0;" x1="719" x2="915" y1="491.082" y2="491.082"/><text fill="#000000" font-family="sans-serif" font-size="13" lengthAdjust="spacingAndGlyphs" textLength="143" x="726" y="486.3398">  scheduleBindService</text><line style="stroke: #A80036; stroke-width: 1.0; stroke-dasharray: 2.0,2.0;" x1="931" x2="973" y1="520.3926" y2="520.3926"/><line style="stroke: #A80036; stroke-width: 1.0; stroke-dasharray: 2.0,2.0;" x1="973" x2="973" y1="520.3926" y2="533.3926"/><line style="stroke: #A80036; stroke-width: 1.0; stroke-dasharray: 2.0,2.0;" x1="932" x2="973" y1="533.3926" y2="533.3926"/><polygon fill="#A80036" points="942,529.3926,932,533.3926,942,537.3926,938,533.3926" style="stroke: #A80036; stroke-width: 1.0;"/><text fill="#000000" font-family="sans-serif" font-size="13" font-style="italic" lengthAdjust="spacingAndGlyphs" textLength="25" x="938" y="515.6504">new</text><text fill="#000000" font-family="sans-serif" font-size="13" lengthAdjust="spacingAndGlyphs" textLength="100" x="967" y="515.6504">BindServiceData</text><polygon fill="#A80036" points="1064,558.7031,1074,562.7031,1064,566.7031,1068,562.7031" style="stroke: #A80036; stroke-width: 1.0;"/><line style="stroke: #A80036; stroke-width: 1.0;" x1="926" x2="1070" y1="562.7031" y2="562.7031"/><text fill="#000000" font-family="sans-serif" font-size="13" lengthAdjust="spacingAndGlyphs" textLength="126" x="933" y="557.9609"> handleBindService</text><polygon fill="#A80036" points="1165,588.0137,1175,592.0137,1165,596.0137,1169,592.0137" style="stroke: #A80036; stroke-width: 1.0;"/><line style="stroke: #A80036; stroke-width: 1.0;" x1="1086" x2="1171" y1="592.0137" y2="592.0137"/><text fill="#000000" font-family="sans-serif" font-size="13" lengthAdjust="spacingAndGlyphs" textLength="43" x="1093" y="587.2715">onBind</text><polygon fill="#A80036" points="1097,617.3242,1087,621.3242,1097,625.3242,1093,621.3242" style="stroke: #A80036; stroke-width: 1.0;"/><line style="stroke: #A80036; stroke-width: 1.0; stroke-dasharray: 2.0,2.0;" x1="1091" x2="1181" y1="621.3242" y2="621.3242"/><text fill="#000000" font-family="sans-serif" font-size="13" lengthAdjust="spacingAndGlyphs" textLength="43" x="1103" y="616.582">IBinder</text><polygon fill="#A80036" points="570,646.6348,560,650.6348,570,654.6348,566,650.6348" style="stroke: #A80036; stroke-width: 1.0;"/><line style="stroke: #A80036; stroke-width: 1.0;" x1="564" x2="1080" y1="650.6348" y2="650.6348"/><text fill="#000000" font-family="sans-serif" font-size="13" lengthAdjust="spacingAndGlyphs" textLength="91" x="576" y="645.8926">publishService</text><polygon fill="#A80036" points="702,675.9453,712,679.9453,702,683.9453,706,679.9453" style="stroke: #A80036; stroke-width: 1.0;"/><line style="stroke: #A80036; stroke-width: 1.0;" x1="559" x2="708" y1="679.9453" y2="679.9453"/><text fill="#000000" font-family="sans-serif" font-size="13" lengthAdjust="spacingAndGlyphs" textLength="136" x="566" y="675.2031">publishServiceLocked</text><polygon fill="#A80036" points="403,705.2559,393,709.2559,403,713.2559,399,709.2559" style="stroke: #A80036; stroke-width: 1.0;"/><line style="stroke: #A80036; stroke-width: 1.0;" x1="397" x2="718" y1="709.2559" y2="709.2559"/><text fill="#000000" font-family="sans-serif" font-size="13" lengthAdjust="spacingAndGlyphs" textLength="65" x="409" y="704.5137">connected</text><line style="stroke: #A80036; stroke-width: 1.0;" x1="392" x2="439" y1="733.5664" y2="733.5664"/><line style="stroke: #A80036; stroke-width: 1.0;" x1="439" x2="439" y1="733.5664" y2="746.5664"/><line style="stroke: #A80036; stroke-width: 1.0;" x1="398" x2="439" y1="746.5664" y2="746.5664"/><polygon fill="#A80036" points="408,742.5664,398,746.5664,408,750.5664,404,746.5664" style="stroke: #A80036; stroke-width: 1.0;"/><text fill="#000000" font-family="sans-serif" font-size="13" lengthAdjust="spacingAndGlyphs" textLength="83" x="404" y="728.8242">doConnected</text><polygon fill="#A80036" points="14,776.877,4,780.877,14,784.877,10,780.877" style="stroke: #A80036; stroke-width: 1.0;"/><line style="stroke: #A80036; stroke-width: 1.0; stroke-dasharray: 2.0,2.0;" x1="8" x2="391" y1="780.877" y2="780.877"/><text fill="#000000" font-family="sans-serif" font-size="13" lengthAdjust="spacingAndGlyphs" textLength="127" x="20" y="776.1348">onServiceConnected</text><!--
@startuml bindService
participant ContextImpl
participant LoadedApk
participant ServiceDispatcher
participant ActivityManagerService
participant ActiveServices
[-> ContextImpl: bindService
activate ContextImpl
ContextImpl -> ContextImpl ++: bindServiceCommon
ContextImpl -> LoadedApk ++: getServiceDispatcher
LoadedApk -> ServiceDispatcher **: <i>new</i>
LoadedApk - -> ContextImpl - -: IServiceConnection
ContextImpl -> ActivityManagerService - -:   bindIsolatedService
deactivate ContextImpl

ActivityManagerService -> ActiveServices: bindServiceLocked

activate ActiveServices
ActiveServices -> ActiveServices ++: retrieveServiceLocked
deactivate ActiveServices
ActiveServices -> ActiveServices ++: bringUpServiceLocked
deactivate ActiveServices
ActiveServices -> ActiveServices ++: requestServiceBindingLocked
ActiveServices -> ApplicationThread - -:   scheduleBindService
deactivate ActiveServices

activate ApplicationThread
ApplicationThread - -> ApplicationThread: <i>new</i> BindServiceData
ApplicationThread -> ActivityThread - -:  handleBindService
activate ActivityThread
ActivityThread -> Service ++: onBind
return IBinder
ActivityThread -> ActivityManagerService - -: publishService

ActivityManagerService -> ActiveServices ++: publishServiceLocked
ActiveServices -> ServiceDispatcher: connected
deactivate ActiveServices
ServiceDispatcher -> ServiceDispatcher ++: doConnected
ServiceDispatcher - ->[: onServiceConnected
deactivate ServiceDispatcher
@enduml

PlantUML version 1.2019.09(Tue Aug 27 00:19:51 CST 2019)
(GPL source distribution)
Java Runtime: Java(TM) SE Runtime Environment
JVM: Java HotSpot(TM) 64-Bit Server VM
Java Version: 10.0.2+13
Operating System: Mac OS X
OS Version: 10.14.6
Default Encoding: US-ASCII
Language: zh
Country: CN
--></g></svg>