<?xml version="1.0" encoding="UTF-8" standalone="no"?><svg xmlns="http://www.w3.org/2000/svg" xmlns:xlink="http://www.w3.org/1999/xlink" contentScriptType="application/ecmascript" contentStyleType="text/css" height="992px" preserveAspectRatio="none" style="width:1029px;height:992px;" version="1.1" viewBox="0 0 1029 992" width="1029px" zoomAndPan="magnify"><defs><filter height="300%" id="f9m9sa22r11bf" width="300%" x="-1" y="-1"><feGaussianBlur result="blurOut" stdDeviation="2.0"/><feColorMatrix in="blurOut" result="blurOut2" type="matrix" values="0 0 0 0 0 0 0 0 0 0 0 0 0 0 0 0 0 0 .4 0"/><feOffset dx="4.0" dy="4.0" in="blurOut2" result="blurOut3"/><feBlend in="SourceGraphic" in2="blurOut3" mode="normal"/></filter></defs><g><rect fill="#FFFFFF" filter="url(#f9m9sa22r11bf)" height="143.9316" style="stroke: #A80036; stroke-width: 1.0;" width="10" x="95" y="69.7988"/><rect fill="#FFFFFF" filter="url(#f9m9sa22r11bf)" height="106.6211" style="stroke: #A80036; stroke-width: 1.0;" width="10" x="100" y="107.1094"/><rect fill="#FFFFFF" filter="url(#f9m9sa22r11bf)" height="28" style="stroke: #A80036; stroke-width: 1.0;" width="10" x="105" y="149.4199"/><rect fill="#FFFFFF" filter="url(#f9m9sa22r11bf)" height="700.457" style="stroke: #A80036; stroke-width: 1.0;" width="10" x="408.5" y="243.041"/><rect fill="#FFFFFF" filter="url(#f9m9sa22r11bf)" height="28" style="stroke: #A80036; stroke-width: 1.0;" width="10" x="413.5" y="280.3516"/><rect fill="#FFFFFF" filter="url(#f9m9sa22r11bf)" height="590.8359" style="stroke: #A80036; stroke-width: 1.0;" width="10" x="413.5" y="352.6621"/><rect fill="#FFFFFF" filter="url(#f9m9sa22r11bf)" height="548.5254" style="stroke: #A80036; stroke-width: 1.0;" width="10" x="418.5" y="394.9727"/><rect fill="#FFFFFF" filter="url(#f9m9sa22r11bf)" height="506.2148" style="stroke: #A80036; stroke-width: 1.0;" width="10" x="423.5" y="437.2832"/><rect fill="#FFFFFF" filter="url(#f9m9sa22r11bf)" height="144.2422" style="stroke: #A80036; stroke-width: 1.0;" width="10" x="428.5" y="799.2559"/><rect fill="#FFFFFF" filter="url(#f9m9sa22r11bf)" height="71.6211" style="stroke: #A80036; stroke-width: 1.0;" width="10" x="643.5" y="471.5938"/><rect fill="#FFFFFF" filter="url(#f9m9sa22r11bf)" height="71.6211" style="stroke: #A80036; stroke-width: 1.0;" width="10" x="643.5" y="833.5664"/><rect fill="#FFFFFF" filter="url(#f9m9sa22r11bf)" height="218.7305" style="stroke: #A80036; stroke-width: 1.0;" width="10" x="811.5" y="543.2148"/><rect fill="#FFFFFF" filter="url(#f9m9sa22r11bf)" height="38.3105" style="stroke: #A80036; stroke-width: 1.0;" width="10" x="811.5" y="905.1875"/><rect fill="#FFFFFF" filter="url(#f9m9sa22r11bf)" height="30" style="stroke: #A80036; stroke-width: 1.0;" width="10" x="984.5" y="731.9453"/><rect fill="#FFFFFF" filter="url(#f9m9sa22r11bf)" height="9" style="stroke: #A80036; stroke-width: 1.0;" width="10" x="984.5" y="934.498"/><rect fill="#FEFECE" filter="url(#f9m9sa22r11bf)" height="30.4883" style="stroke: #A80036; stroke-width: 1.5;" width="62" x="956.5" y="551.2148"/><text fill="#000000" font-family="sans-serif" font-size="14" lengthAdjust="spacingAndGlyphs" textLength="48" x="963.5" y="571.75">Service</text><line style="stroke: #A80036; stroke-width: 1.0; stroke-dasharray: 5.0,5.0;" x1="99.5" x2="99.5" y1="38.4883" y2="952.498"/><line style="stroke: #A80036; stroke-width: 1.0; stroke-dasharray: 5.0,5.0;" x1="258.5" x2="258.5" y1="38.4883" y2="952.498"/><line style="stroke: #A80036; stroke-width: 1.0; stroke-dasharray: 5.0,5.0;" x1="413.5" x2="413.5" y1="38.4883" y2="952.498"/><line style="stroke: #A80036; stroke-width: 1.0; stroke-dasharray: 5.0,5.0;" x1="648" x2="648" y1="38.4883" y2="952.498"/><line style="stroke: #A80036; stroke-width: 1.0; stroke-dasharray: 5.0,5.0;" x1="816.5" x2="816.5" y1="38.4883" y2="952.498"/><line style="stroke: #A80036; stroke-width: 1.0; stroke-dasharray: 5.0,5.0;" x1="989.5" x2="989.5" y1="583.959" y2="952.498"/><rect fill="#FEFECE" filter="url(#f9m9sa22r11bf)" height="30.4883" style="stroke: #A80036; stroke-width: 1.5;" width="99" x="48.5" y="3"/><text fill="#000000" font-family="sans-serif" font-size="14" lengthAdjust="spacingAndGlyphs" textLength="85" x="55.5" y="23.5352">ContextImpl</text><rect fill="#FEFECE" filter="url(#f9m9sa22r11bf)" height="30.4883" style="stroke: #A80036; stroke-width: 1.5;" width="99" x="48.5" y="951.498"/><text fill="#000000" font-family="sans-serif" font-size="14" lengthAdjust="spacingAndGlyphs" textLength="85" x="55.5" y="972.0332">ContextImpl</text><rect fill="#FEFECE" filter="url(#f9m9sa22r11bf)" height="30.4883" style="stroke: #A80036; stroke-width: 1.5;" width="171" x="171.5" y="3"/><text fill="#000000" font-family="sans-serif" font-size="14" lengthAdjust="spacingAndGlyphs" textLength="157" x="178.5" y="23.5352">ActivityManagerService</text><rect fill="#FEFECE" filter="url(#f9m9sa22r11bf)" height="30.4883" style="stroke: #A80036; stroke-width: 1.5;" width="171" x="171.5" y="951.498"/><text fill="#000000" font-family="sans-serif" font-size="14" lengthAdjust="spacingAndGlyphs" textLength="157" x="178.5" y="972.0332">ActivityManagerService</text><rect fill="#FEFECE" filter="url(#f9m9sa22r11bf)" height="30.4883" style="stroke: #A80036; stroke-width: 1.5;" width="110" x="356.5" y="3"/><text fill="#000000" font-family="sans-serif" font-size="14" lengthAdjust="spacingAndGlyphs" textLength="96" x="363.5" y="23.5352">ActiveServices</text><rect fill="#FEFECE" filter="url(#f9m9sa22r11bf)" height="30.4883" style="stroke: #A80036; stroke-width: 1.5;" width="110" x="356.5" y="951.498"/><text fill="#000000" font-family="sans-serif" font-size="14" lengthAdjust="spacingAndGlyphs" textLength="96" x="363.5" y="972.0332">ActiveServices</text><rect fill="#FEFECE" filter="url(#f9m9sa22r11bf)" height="30.4883" style="stroke: #A80036; stroke-width: 1.5;" width="141" x="576" y="3"/><text fill="#000000" font-family="sans-serif" font-size="14" lengthAdjust="spacingAndGlyphs" textLength="127" x="583" y="23.5352">ApplicationThread</text><rect fill="#FEFECE" filter="url(#f9m9sa22r11bf)" height="30.4883" style="stroke: #A80036; stroke-width: 1.5;" width="141" x="576" y="951.498"/><text fill="#000000" font-family="sans-serif" font-size="14" lengthAdjust="spacingAndGlyphs" textLength="127" x="583" y="972.0332">ApplicationThread</text><rect fill="#FEFECE" filter="url(#f9m9sa22r11bf)" height="30.4883" style="stroke: #A80036; stroke-width: 1.5;" width="112" x="758.5" y="3"/><text fill="#000000" font-family="sans-serif" font-size="14" lengthAdjust="spacingAndGlyphs" textLength="98" x="765.5" y="23.5352">ActivityThread</text><rect fill="#FEFECE" filter="url(#f9m9sa22r11bf)" height="30.4883" style="stroke: #A80036; stroke-width: 1.5;" width="112" x="758.5" y="951.498"/><text fill="#000000" font-family="sans-serif" font-size="14" lengthAdjust="spacingAndGlyphs" textLength="98" x="765.5" y="972.0332">ActivityThread</text><rect fill="#FEFECE" filter="url(#f9m9sa22r11bf)" height="30.4883" style="stroke: #A80036; stroke-width: 1.5;" width="62" x="956.5" y="951.498"/><text fill="#000000" font-family="sans-serif" font-size="14" lengthAdjust="spacingAndGlyphs" textLength="48" x="963.5" y="972.0332">Service</text><rect fill="#FFFFFF" filter="url(#f9m9sa22r11bf)" height="143.9316" style="stroke: #A80036; stroke-width: 1.0;" width="10" x="95" y="69.7988"/><rect fill="#FFFFFF" filter="url(#f9m9sa22r11bf)" height="106.6211" style="stroke: #A80036; stroke-width: 1.0;" width="10" x="100" y="107.1094"/><rect fill="#FFFFFF" filter="url(#f9m9sa22r11bf)" height="28" style="stroke: #A80036; stroke-width: 1.0;" width="10" x="105" y="149.4199"/><rect fill="#FFFFFF" filter="url(#f9m9sa22r11bf)" height="700.457" style="stroke: #A80036; stroke-width: 1.0;" width="10" x="408.5" y="243.041"/><rect fill="#FFFFFF" filter="url(#f9m9sa22r11bf)" height="28" style="stroke: #A80036; stroke-width: 1.0;" width="10" x="413.5" y="280.3516"/><rect fill="#FFFFFF" filter="url(#f9m9sa22r11bf)" height="590.8359" style="stroke: #A80036; stroke-width: 1.0;" width="10" x="413.5" y="352.6621"/><rect fill="#FFFFFF" filter="url(#f9m9sa22r11bf)" height="548.5254" style="stroke: #A80036; stroke-width: 1.0;" width="10" x="418.5" y="394.9727"/><rect fill="#FFFFFF" filter="url(#f9m9sa22r11bf)" height="506.2148" style="stroke: #A80036; stroke-width: 1.0;" width="10" x="423.5" y="437.2832"/><rect fill="#FFFFFF" filter="url(#f9m9sa22r11bf)" height="144.2422" style="stroke: #A80036; stroke-width: 1.0;" width="10" x="428.5" y="799.2559"/><rect fill="#FFFFFF" filter="url(#f9m9sa22r11bf)" height="71.6211" style="stroke: #A80036; stroke-width: 1.0;" width="10" x="643.5" y="471.5938"/><rect fill="#FFFFFF" filter="url(#f9m9sa22r11bf)" height="71.6211" style="stroke: #A80036; stroke-width: 1.0;" width="10" x="643.5" y="833.5664"/><rect fill="#FFFFFF" filter="url(#f9m9sa22r11bf)" height="218.7305" style="stroke: #A80036; stroke-width: 1.0;" width="10" x="811.5" y="543.2148"/><rect fill="#FFFFFF" filter="url(#f9m9sa22r11bf)" height="38.3105" style="stroke: #A80036; stroke-width: 1.0;" width="10" x="811.5" y="905.1875"/><rect fill="#FFFFFF" filter="url(#f9m9sa22r11bf)" height="30" style="stroke: #A80036; stroke-width: 1.0;" width="10" x="984.5" y="731.9453"/><rect fill="#FFFFFF" filter="url(#f9m9sa22r11bf)" height="9" style="stroke: #A80036; stroke-width: 1.0;" width="10" x="984.5" y="934.498"/><polygon fill="#A80036" points="83,65.7988,93,69.7988,83,73.7988,87,69.7988" style="stroke: #A80036; stroke-width: 1.0;"/><line style="stroke: #A80036; stroke-width: 1.0;" x1="3" x2="89" y1="69.7988" y2="69.7988"/><text fill="#000000" font-family="sans-serif" font-size="13" lengthAdjust="spacingAndGlyphs" textLength="73" x="10" y="65.0566">startService</text><line style="stroke: #A80036; stroke-width: 1.0;" x1="105" x2="152" y1="94.1094" y2="94.1094"/><line style="stroke: #A80036; stroke-width: 1.0;" x1="152" x2="152" y1="94.1094" y2="107.1094"/><line style="stroke: #A80036; stroke-width: 1.0;" x1="111" x2="152" y1="107.1094" y2="107.1094"/><polygon fill="#A80036" points="121,103.1094,111,107.1094,121,111.1094,117,107.1094" style="stroke: #A80036; stroke-width: 1.0;"/><text fill="#000000" font-family="sans-serif" font-size="13" lengthAdjust="spacingAndGlyphs" textLength="130" x="117" y="89.3672">startServiceCommon</text><line style="stroke: #A80036; stroke-width: 1.0;" x1="115" x2="157" y1="141.4199" y2="141.4199"/><line style="stroke: #A80036; stroke-width: 1.0;" x1="157" x2="157" y1="141.4199" y2="154.4199"/><line style="stroke: #A80036; stroke-width: 1.0;" x1="116" x2="157" y1="154.4199" y2="154.4199"/><polygon fill="#A80036" points="126,150.4199,116,154.4199,126,158.4199,122,154.4199" style="stroke: #A80036; stroke-width: 1.0;"/><text fill="#000000" font-family="sans-serif" font-size="13" lengthAdjust="spacingAndGlyphs" textLength="130" x="122" y="136.6777">validateServiceIntent</text><polygon fill="#A80036" points="247,209.7305,257,213.7305,247,217.7305,251,213.7305" style="stroke: #A80036; stroke-width: 1.0;"/><line style="stroke: #A80036; stroke-width: 1.0;" x1="100" x2="253" y1="213.7305" y2="213.7305"/><text fill="#000000" font-family="sans-serif" font-size="13" lengthAdjust="spacingAndGlyphs" textLength="89" x="107" y="208.9883">  startService</text><polygon fill="#A80036" points="396.5,239.041,406.5,243.041,396.5,247.041,400.5,243.041" style="stroke: #A80036; stroke-width: 1.0;"/><line style="stroke: #A80036; stroke-width: 1.0;" x1="259" x2="402.5" y1="243.041" y2="243.041"/><text fill="#000000" font-family="sans-serif" font-size="13" lengthAdjust="spacingAndGlyphs" textLength="118" x="266" y="238.2988">startServiceLocked</text><line style="stroke: #A80036; stroke-width: 1.0;" x1="423.5" x2="465.5" y1="272.3516" y2="272.3516"/><line style="stroke: #A80036; stroke-width: 1.0;" x1="465.5" x2="465.5" y1="272.3516" y2="285.3516"/><line style="stroke: #A80036; stroke-width: 1.0;" x1="424.5" x2="465.5" y1="285.3516" y2="285.3516"/><polygon fill="#A80036" points="434.5,281.3516,424.5,285.3516,434.5,289.3516,430.5,285.3516" style="stroke: #A80036; stroke-width: 1.0;"/><text fill="#000000" font-family="sans-serif" font-size="13" lengthAdjust="spacingAndGlyphs" textLength="136" x="430.5" y="267.6094">retrieveServiceLocked</text><line style="stroke: #A80036; stroke-width: 1.0;" x1="418.5" x2="465.5" y1="339.6621" y2="339.6621"/><line style="stroke: #A80036; stroke-width: 1.0;" x1="465.5" x2="465.5" y1="339.6621" y2="352.6621"/><line style="stroke: #A80036; stroke-width: 1.0;" x1="424.5" x2="465.5" y1="352.6621" y2="352.6621"/><polygon fill="#A80036" points="434.5,348.6621,424.5,352.6621,434.5,356.6621,430.5,352.6621" style="stroke: #A80036; stroke-width: 1.0;"/><text fill="#000000" font-family="sans-serif" font-size="13" lengthAdjust="spacingAndGlyphs" textLength="150" x="430.5" y="334.9199">startServiceInnerLocked</text><line style="stroke: #A80036; stroke-width: 1.0;" x1="423.5" x2="470.5" y1="381.9727" y2="381.9727"/><line style="stroke: #A80036; stroke-width: 1.0;" x1="470.5" x2="470.5" y1="381.9727" y2="394.9727"/><line style="stroke: #A80036; stroke-width: 1.0;" x1="429.5" x2="470.5" y1="394.9727" y2="394.9727"/><polygon fill="#A80036" points="439.5,390.9727,429.5,394.9727,439.5,398.9727,435.5,394.9727" style="stroke: #A80036; stroke-width: 1.0;"/><text fill="#000000" font-family="sans-serif" font-size="13" lengthAdjust="spacingAndGlyphs" textLength="139" x="435.5" y="377.2305">bringUpServiceLocked</text><line style="stroke: #A80036; stroke-width: 1.0;" x1="428.5" x2="475.5" y1="424.2832" y2="424.2832"/><line style="stroke: #A80036; stroke-width: 1.0;" x1="475.5" x2="475.5" y1="424.2832" y2="437.2832"/><line style="stroke: #A80036; stroke-width: 1.0;" x1="434.5" x2="475.5" y1="437.2832" y2="437.2832"/><polygon fill="#A80036" points="444.5,433.2832,434.5,437.2832,444.5,441.2832,440.5,437.2832" style="stroke: #A80036; stroke-width: 1.0;"/><text fill="#000000" font-family="sans-serif" font-size="13" lengthAdjust="spacingAndGlyphs" textLength="141" x="440.5" y="419.541">realStartServiceLocked</text><polygon fill="#A80036" points="631.5,467.5938,641.5,471.5938,631.5,475.5938,635.5,471.5938" style="stroke: #A80036; stroke-width: 1.0;"/><line style="stroke: #A80036; stroke-width: 1.0;" x1="433.5" x2="637.5" y1="471.5938" y2="471.5938"/><text fill="#000000" font-family="sans-serif" font-size="13" font-style="italic" lengthAdjust="spacingAndGlyphs" textLength="47" x="440.5" y="466.8516">oneway</text><text fill="#000000" font-family="sans-serif" font-size="13" lengthAdjust="spacingAndGlyphs" textLength="140" x="491.5" y="466.8516">scheduleCreateService</text><line style="stroke: #A80036; stroke-width: 1.0; stroke-dasharray: 2.0,2.0;" x1="653.5" x2="695.5" y1="500.9043" y2="500.9043"/><line style="stroke: #A80036; stroke-width: 1.0; stroke-dasharray: 2.0,2.0;" x1="695.5" x2="695.5" y1="500.9043" y2="513.9043"/><line style="stroke: #A80036; stroke-width: 1.0; stroke-dasharray: 2.0,2.0;" x1="654.5" x2="695.5" y1="513.9043" y2="513.9043"/><polygon fill="#A80036" points="664.5,509.9043,654.5,513.9043,664.5,517.9043,660.5,513.9043" style="stroke: #A80036; stroke-width: 1.0;"/><text fill="#000000" font-family="sans-serif" font-size="13" font-style="italic" lengthAdjust="spacingAndGlyphs" textLength="25" x="660.5" y="496.1621">new</text><text fill="#000000" font-family="sans-serif" font-size="13" lengthAdjust="spacingAndGlyphs" textLength="113" x="689.5" y="496.1621">CreateServiceData</text><polygon fill="#A80036" points="799.5,539.2148,809.5,543.2148,799.5,547.2148,803.5,543.2148" style="stroke: #A80036; stroke-width: 1.0;"/><line style="stroke: #A80036; stroke-width: 1.0;" x1="648.5" x2="805.5" y1="543.2148" y2="543.2148"/><text fill="#000000" font-family="sans-serif" font-size="13" lengthAdjust="spacingAndGlyphs" textLength="139" x="655.5" y="538.4727"> handleCreateService</text><polygon fill="#A80036" points="944.5,568.5254,954.5,572.5254,944.5,576.5254,948.5,572.5254" style="stroke: #A80036; stroke-width: 1.0;"/><line style="stroke: #A80036; stroke-width: 1.0;" x1="821.5" x2="950.5" y1="572.5254" y2="572.5254"/><text fill="#000000" font-family="sans-serif" font-size="13" lengthAdjust="spacingAndGlyphs" textLength="111" x="828.5" y="567.7832">instantiateService</text><rect fill="#FEFECE" filter="url(#f9m9sa22r11bf)" height="30.4883" style="stroke: #A80036; stroke-width: 1.5;" width="62" x="956.5" y="551.2148"/><text fill="#000000" font-family="sans-serif" font-size="14" lengthAdjust="spacingAndGlyphs" textLength="48" x="963.5" y="571.75">Service</text><line style="stroke: #A80036; stroke-width: 1.0; stroke-dasharray: 2.0,2.0;" x1="821.5" x2="863.5" y1="618.0137" y2="618.0137"/><line style="stroke: #A80036; stroke-width: 1.0; stroke-dasharray: 2.0,2.0;" x1="863.5" x2="863.5" y1="618.0137" y2="631.0137"/><line style="stroke: #A80036; stroke-width: 1.0; stroke-dasharray: 2.0,2.0;" x1="822.5" x2="863.5" y1="631.0137" y2="631.0137"/><polygon fill="#A80036" points="832.5,627.0137,822.5,631.0137,832.5,635.0137,828.5,631.0137" style="stroke: #A80036; stroke-width: 1.0;"/><text fill="#000000" font-family="sans-serif" font-size="13" font-style="italic" lengthAdjust="spacingAndGlyphs" textLength="25" x="828.5" y="613.2715">new</text><text fill="#000000" font-family="sans-serif" font-size="13" lengthAdjust="spacingAndGlyphs" textLength="78" x="857.5" y="613.2715">ContextImpl</text><line style="stroke: #A80036; stroke-width: 1.0;" x1="821.5" x2="863.5" y1="660.3242" y2="660.3242"/><line style="stroke: #A80036; stroke-width: 1.0;" x1="863.5" x2="863.5" y1="660.3242" y2="673.3242"/><line style="stroke: #A80036; stroke-width: 1.0;" x1="822.5" x2="863.5" y1="673.3242" y2="673.3242"/><polygon fill="#A80036" points="832.5,669.3242,822.5,673.3242,832.5,677.3242,828.5,673.3242" style="stroke: #A80036; stroke-width: 1.0;"/><text fill="#000000" font-family="sans-serif" font-size="13" lengthAdjust="spacingAndGlyphs" textLength="106" x="828.5" y="655.582">makeApplication</text><polygon fill="#A80036" points="977.5,698.6348,987.5,702.6348,977.5,706.6348,981.5,702.6348" style="stroke: #A80036; stroke-width: 1.0;"/><line style="stroke: #A80036; stroke-width: 1.0;" x1="821.5" x2="983.5" y1="702.6348" y2="702.6348"/><text fill="#000000" font-family="sans-serif" font-size="13" lengthAdjust="spacingAndGlyphs" textLength="39" x="828.5" y="697.8926">attach</text><polygon fill="#A80036" points="972.5,727.9453,982.5,731.9453,972.5,735.9453,976.5,731.9453" style="stroke: #A80036; stroke-width: 1.0;"/><line style="stroke: #A80036; stroke-width: 1.0;" x1="821.5" x2="978.5" y1="731.9453" y2="731.9453"/><text fill="#000000" font-family="sans-serif" font-size="13" lengthAdjust="spacingAndGlyphs" textLength="56" x="828.5" y="727.2031">onCreate</text><line style="stroke: #A80036; stroke-width: 1.0;" x1="433.5" x2="480.5" y1="786.2559" y2="786.2559"/><line style="stroke: #A80036; stroke-width: 1.0;" x1="480.5" x2="480.5" y1="786.2559" y2="799.2559"/><line style="stroke: #A80036; stroke-width: 1.0;" x1="439.5" x2="480.5" y1="799.2559" y2="799.2559"/><polygon fill="#A80036" points="449.5,795.2559,439.5,799.2559,449.5,803.2559,445.5,799.2559" style="stroke: #A80036; stroke-width: 1.0;"/><text fill="#000000" font-family="sans-serif" font-size="13" lengthAdjust="spacingAndGlyphs" textLength="148" x="445.5" y="781.5137">sendServiceArgsLocked</text><polygon fill="#A80036" points="631.5,829.5664,641.5,833.5664,631.5,837.5664,635.5,833.5664" style="stroke: #A80036; stroke-width: 1.0;"/><line style="stroke: #A80036; stroke-width: 1.0;" x1="438.5" x2="637.5" y1="833.5664" y2="833.5664"/><text fill="#000000" font-family="sans-serif" font-size="13" font-style="italic" lengthAdjust="spacingAndGlyphs" textLength="47" x="445.5" y="828.8242">oneway</text><text fill="#000000" font-family="sans-serif" font-size="13" lengthAdjust="spacingAndGlyphs" textLength="129" x="496.5" y="828.8242">scheduleServiceArgs</text><line style="stroke: #A80036; stroke-width: 1.0; stroke-dasharray: 2.0,2.0;" x1="653.5" x2="695.5" y1="862.877" y2="862.877"/><line style="stroke: #A80036; stroke-width: 1.0; stroke-dasharray: 2.0,2.0;" x1="695.5" x2="695.5" y1="862.877" y2="875.877"/><line style="stroke: #A80036; stroke-width: 1.0; stroke-dasharray: 2.0,2.0;" x1="654.5" x2="695.5" y1="875.877" y2="875.877"/><polygon fill="#A80036" points="664.5,871.877,654.5,875.877,664.5,879.877,660.5,875.877" style="stroke: #A80036; stroke-width: 1.0;"/><text fill="#000000" font-family="sans-serif" font-size="13" font-style="italic" lengthAdjust="spacingAndGlyphs" textLength="25" x="660.5" y="858.1348">new</text><text fill="#000000" font-family="sans-serif" font-size="13" lengthAdjust="spacingAndGlyphs" textLength="102" x="689.5" y="858.1348">ServiceArgsData</text><polygon fill="#A80036" points="799.5,901.1875,809.5,905.1875,799.5,909.1875,803.5,905.1875" style="stroke: #A80036; stroke-width: 1.0;"/><line style="stroke: #A80036; stroke-width: 1.0;" x1="648.5" x2="805.5" y1="905.1875" y2="905.1875"/><text fill="#000000" font-family="sans-serif" font-size="13" lengthAdjust="spacingAndGlyphs" textLength="128" x="655.5" y="900.4453"> handleServiceArgs</text><polygon fill="#A80036" points="972.5,930.498,982.5,934.498,972.5,938.498,976.5,934.498" style="stroke: #A80036; stroke-width: 1.0;"/><line style="stroke: #A80036; stroke-width: 1.0;" x1="821.5" x2="978.5" y1="934.498" y2="934.498"/><text fill="#000000" font-family="sans-serif" font-size="13" lengthAdjust="spacingAndGlyphs" textLength="109" x="828.5" y="929.7559">onStartCommand</text><!--
@startuml startService
participant ContextImpl
participant ActivityManagerService
participant ActiveServices
[-> ContextImpl: startService
activate ContextImpl
ContextImpl -> ContextImpl ++: startServiceCommon
ContextImpl -> ContextImpl ++: validateServiceIntent
deactivate ContextImpl
ContextImpl -> ActivityManagerService - -:   startService
deactivate ContextImpl

ActivityManagerService -> ActiveServices: startServiceLocked

activate ActiveServices
ActiveServices -> ActiveServices ++: retrieveServiceLocked
deactivate ActiveServices
ActiveServices -> ActiveServices ++: startServiceInnerLocked
ActiveServices -> ActiveServices ++: bringUpServiceLocked
ActiveServices -> ActiveServices ++: realStartServiceLocked
ActiveServices -> ApplicationThread: <i>oneway</i> scheduleCreateService

activate ApplicationThread
ApplicationThread - -> ApplicationThread: <i>new</i> CreateServiceData
ApplicationThread -> ActivityThread - -:  handleCreateService
activate ActivityThread
ActivityThread -> Service **: instantiateService
ActivityThread - -> ActivityThread: <i>new</i> ContextImpl
ActivityThread -> ActivityThread: makeApplication
ActivityThread -> Service: attach
ActivityThread -> Service ++: onCreate
deactivate Service
deactivate ActivityThread

ActiveServices -> ActiveServices ++: sendServiceArgsLocked
ActiveServices -> ApplicationThread: <i>oneway</i> scheduleServiceArgs

activate ApplicationThread
ApplicationThread - -> ApplicationThread: <i>new</i> ServiceArgsData
ApplicationThread -> ActivityThread - -:  handleServiceArgs
activate ActivityThread
ActivityThread -> Service ++: onStartCommand
@enduml

PlantUML version 1.2019.09(Tue Aug 27 00:19:51 CST 2019)
(GPL source distribution)
Java Runtime: Java(TM) SE Runtime Environment
JVM: Java HotSpot(TM) 64-Bit Server VM
Java Version: 10.0.2+13
Operating System: Mac OS X
OS Version: 10.14.6
Default Encoding: US-ASCII
Language: zh
Country: CN
--></g></svg>