<?xml version="1.0" encoding="UTF-8" standalone="no"?><svg xmlns="http://www.w3.org/2000/svg" xmlns:xlink="http://www.w3.org/1999/xlink" contentScriptType="application/ecmascript" contentStyleType="text/css" height="412px" preserveAspectRatio="none" style="width:815px;height:412px;" version="1.1" viewBox="0 0 815 412" width="815px" zoomAndPan="magnify"><defs><filter height="300%" id="fdvtk0l6cy8y4" width="300%" x="-1" y="-1"><feGaussianBlur result="blurOut" stdDeviation="2.0"/><feColorMatrix in="blurOut" result="blurOut2" type="matrix" values="0 0 0 0 0 0 0 0 0 0 0 0 0 0 0 0 0 0 .4 0"/><feOffset dx="4.0" dy="4.0" in="blurOut2" result="blurOut3"/><feBlend in="SourceGraphic" in2="blurOut3" mode="normal"/></filter></defs><g><rect fill="#FFFFFF" filter="url(#fdvtk0l6cy8y4)" height="71.2656" style="stroke: #A80036; stroke-width: 1.0;" width="10" x="60" y="69.4297"/><rect fill="#FFFFFF" filter="url(#fdvtk0l6cy8y4)" height="34.1328" style="stroke: #A80036; stroke-width: 1.0;" width="10" x="65" y="106.5625"/><rect fill="#FFFFFF" filter="url(#fdvtk0l6cy8y4)" height="71.2656" style="stroke: #A80036; stroke-width: 1.0;" width="10" x="198" y="283.2266"/><rect fill="#FFFFFF" filter="url(#fdvtk0l6cy8y4)" height="142.5313" style="stroke: #A80036; stroke-width: 1.0;" width="10" x="366.5" y="140.6953"/><rect fill="#FFFFFF" filter="url(#fdvtk0l6cy8y4)" height="105.3984" style="stroke: #A80036; stroke-width: 1.0;" width="10" x="371.5" y="177.8281"/><rect fill="#FFFFFF" filter="url(#fdvtk0l6cy8y4)" height="71.2656" style="stroke: #A80036; stroke-width: 1.0;" width="10" x="599.5" y="211.9609"/><rect fill="#FFFFFF" filter="url(#fdvtk0l6cy8y4)" height="34.1328" style="stroke: #A80036; stroke-width: 1.0;" width="10" x="604.5" y="249.0938"/><line style="stroke: #A80036; stroke-width: 1.0; stroke-dasharray: 5.0,5.0;" x1="65" x2="65" y1="38.2969" y2="372.4922"/><line style="stroke: #A80036; stroke-width: 1.0; stroke-dasharray: 5.0,5.0;" x1="203" x2="203" y1="38.2969" y2="372.4922"/><line style="stroke: #A80036; stroke-width: 1.0; stroke-dasharray: 5.0,5.0;" x1="371" x2="371" y1="38.2969" y2="372.4922"/><line style="stroke: #A80036; stroke-width: 1.0; stroke-dasharray: 5.0,5.0;" x1="604" x2="604" y1="38.2969" y2="372.4922"/><rect fill="#FEFECE" filter="url(#fdvtk0l6cy8y4)" height="30.2969" style="stroke: #A80036; stroke-width: 1.5;" width="110" x="8" y="3"/><text fill="#000000" font-family="sans-serif" font-size="14" lengthAdjust="spacingAndGlyphs" textLength="96" x="15" y="22.9951">ActivityThread</text><rect fill="#FEFECE" filter="url(#fdvtk0l6cy8y4)" height="30.2969" style="stroke: #A80036; stroke-width: 1.5;" width="110" x="8" y="371.4922"/><text fill="#000000" font-family="sans-serif" font-size="14" lengthAdjust="spacingAndGlyphs" textLength="96" x="15" y="391.4873">ActivityThread</text><rect fill="#FEFECE" filter="url(#fdvtk0l6cy8y4)" height="30.2969" style="stroke: #A80036; stroke-width: 1.5;" width="138" x="132" y="3"/><text fill="#000000" font-family="sans-serif" font-size="14" lengthAdjust="spacingAndGlyphs" textLength="124" x="139" y="22.9951">ApplicationThread</text><rect fill="#FEFECE" filter="url(#fdvtk0l6cy8y4)" height="30.2969" style="stroke: #A80036; stroke-width: 1.5;" width="138" x="132" y="371.4922"/><text fill="#000000" font-family="sans-serif" font-size="14" lengthAdjust="spacingAndGlyphs" textLength="124" x="139" y="391.4873">ApplicationThread</text><rect fill="#FEFECE" filter="url(#fdvtk0l6cy8y4)" height="30.2969" style="stroke: #A80036; stroke-width: 1.5;" width="171" x="284" y="3"/><text fill="#000000" font-family="sans-serif" font-size="14" lengthAdjust="spacingAndGlyphs" textLength="157" x="291" y="22.9951">ActivityManagerService</text><rect fill="#FEFECE" filter="url(#fdvtk0l6cy8y4)" height="30.2969" style="stroke: #A80036; stroke-width: 1.5;" width="171" x="284" y="371.4922"/><text fill="#000000" font-family="sans-serif" font-size="14" lengthAdjust="spacingAndGlyphs" textLength="157" x="291" y="391.4873">ActivityManagerService</text><rect fill="#FEFECE" filter="url(#fdvtk0l6cy8y4)" height="30.2969" style="stroke: #A80036; stroke-width: 1.5;" width="131" x="537" y="3"/><text fill="#000000" font-family="sans-serif" font-size="14" lengthAdjust="spacingAndGlyphs" textLength="117" x="544" y="22.9951">BroadcastQueue</text><rect fill="#FEFECE" filter="url(#fdvtk0l6cy8y4)" height="30.2969" style="stroke: #A80036; stroke-width: 1.5;" width="131" x="537" y="371.4922"/><text fill="#000000" font-family="sans-serif" font-size="14" lengthAdjust="spacingAndGlyphs" textLength="117" x="544" y="391.4873">BroadcastQueue</text><rect fill="#FFFFFF" filter="url(#fdvtk0l6cy8y4)" height="71.2656" style="stroke: #A80036; stroke-width: 1.0;" width="10" x="60" y="69.4297"/><rect fill="#FFFFFF" filter="url(#fdvtk0l6cy8y4)" height="34.1328" style="stroke: #A80036; stroke-width: 1.0;" width="10" x="65" y="106.5625"/><rect fill="#FFFFFF" filter="url(#fdvtk0l6cy8y4)" height="71.2656" style="stroke: #A80036; stroke-width: 1.0;" width="10" x="198" y="283.2266"/><rect fill="#FFFFFF" filter="url(#fdvtk0l6cy8y4)" height="142.5313" style="stroke: #A80036; stroke-width: 1.0;" width="10" x="366.5" y="140.6953"/><rect fill="#FFFFFF" filter="url(#fdvtk0l6cy8y4)" height="105.3984" style="stroke: #A80036; stroke-width: 1.0;" width="10" x="371.5" y="177.8281"/><rect fill="#FFFFFF" filter="url(#fdvtk0l6cy8y4)" height="71.2656" style="stroke: #A80036; stroke-width: 1.0;" width="10" x="599.5" y="211.9609"/><rect fill="#FFFFFF" filter="url(#fdvtk0l6cy8y4)" height="34.1328" style="stroke: #A80036; stroke-width: 1.0;" width="10" x="604.5" y="249.0938"/><polygon fill="#A80036" points="48,65.4297,58,69.4297,48,73.4297,52,69.4297" style="stroke: #A80036; stroke-width: 1.0;"/><line style="stroke: #A80036; stroke-width: 1.0;" x1="3" x2="54" y1="69.4297" y2="69.4297"/><text fill="#000000" font-family="sans-serif" font-size="13" lengthAdjust="spacingAndGlyphs" textLength="32" x="10" y="64.3638">main</text><line style="stroke: #A80036; stroke-width: 1.0;" x1="70" x2="117" y1="93.5625" y2="93.5625"/><line style="stroke: #A80036; stroke-width: 1.0;" x1="117" x2="117" y1="93.5625" y2="106.5625"/><line style="stroke: #A80036; stroke-width: 1.0;" x1="76" x2="117" y1="106.5625" y2="106.5625"/><polygon fill="#A80036" points="86,102.5625,76,106.5625,86,110.5625,82,106.5625" style="stroke: #A80036; stroke-width: 1.0;"/><text fill="#000000" font-family="sans-serif" font-size="13" lengthAdjust="spacingAndGlyphs" textLength="41" x="82" y="88.4966">attach</text><polygon fill="#A80036" points="354.5,136.6953,364.5,140.6953,354.5,144.6953,358.5,140.6953" style="stroke: #A80036; stroke-width: 1.0;"/><line style="stroke: #A80036; stroke-width: 1.0;" x1="65" x2="360.5" y1="140.6953" y2="140.6953"/><text fill="#000000" font-family="sans-serif" font-size="13" lengthAdjust="spacingAndGlyphs" textLength="125" x="72" y="135.6294">  attachApplication</text><line style="stroke: #A80036; stroke-width: 1.0;" x1="376.5" x2="423.5" y1="164.8281" y2="164.8281"/><line style="stroke: #A80036; stroke-width: 1.0;" x1="423.5" x2="423.5" y1="164.8281" y2="177.8281"/><line style="stroke: #A80036; stroke-width: 1.0;" x1="382.5" x2="423.5" y1="177.8281" y2="177.8281"/><polygon fill="#A80036" points="392.5,173.8281,382.5,177.8281,392.5,181.8281,388.5,177.8281" style="stroke: #A80036; stroke-width: 1.0;"/><text fill="#000000" font-family="sans-serif" font-size="13" lengthAdjust="spacingAndGlyphs" textLength="156" x="388.5" y="159.7622">attachApplicationLocked</text><polygon fill="#A80036" points="587.5,207.9609,597.5,211.9609,587.5,215.9609,591.5,211.9609" style="stroke: #A80036; stroke-width: 1.0;"/><line style="stroke: #A80036; stroke-width: 1.0;" x1="381.5" x2="593.5" y1="211.9609" y2="211.9609"/><text fill="#000000" font-family="sans-serif" font-size="13" lengthAdjust="spacingAndGlyphs" textLength="199" x="388.5" y="206.895">sendPendingBroadcastsLocked</text><line style="stroke: #A80036; stroke-width: 1.0;" x1="609.5" x2="656.5" y1="236.0938" y2="236.0938"/><line style="stroke: #A80036; stroke-width: 1.0;" x1="656.5" x2="656.5" y1="236.0938" y2="249.0938"/><line style="stroke: #A80036; stroke-width: 1.0;" x1="615.5" x2="656.5" y1="249.0938" y2="249.0938"/><polygon fill="#A80036" points="625.5,245.0938,615.5,249.0938,625.5,253.0938,621.5,249.0938" style="stroke: #A80036; stroke-width: 1.0;"/><text fill="#000000" font-family="sans-serif" font-size="13" lengthAdjust="spacingAndGlyphs" textLength="182" x="621.5" y="231.0278">processCurBroadcastLocked</text><polygon fill="#A80036" points="219,279.2266,209,283.2266,219,287.2266,215,283.2266" style="stroke: #A80036; stroke-width: 1.0;"/><line style="stroke: #A80036; stroke-width: 1.0;" x1="213" x2="603.5" y1="283.2266" y2="283.2266"/><text fill="#000000" font-family="sans-serif" font-size="13" lengthAdjust="spacingAndGlyphs" textLength="111" x="225" y="278.1606">scheduleReceiver</text><line style="stroke: #A80036; stroke-width: 1.0; stroke-dasharray: 2.0,2.0;" x1="208" x2="250" y1="312.3594" y2="312.3594"/><line style="stroke: #A80036; stroke-width: 1.0; stroke-dasharray: 2.0,2.0;" x1="250" x2="250" y1="312.3594" y2="325.3594"/><line style="stroke: #A80036; stroke-width: 1.0; stroke-dasharray: 2.0,2.0;" x1="209" x2="250" y1="325.3594" y2="325.3594"/><polygon fill="#A80036" points="219,321.3594,209,325.3594,219,329.3594,215,325.3594" style="stroke: #A80036; stroke-width: 1.0;"/><text fill="#000000" font-family="sans-serif" font-size="13" lengthAdjust="spacingAndGlyphs" textLength="114" x="215" y="307.2935">new ReceiverData</text><polygon fill="#A80036" points="76,350.4922,66,354.4922,76,358.4922,72,354.4922" style="stroke: #A80036; stroke-width: 1.0;"/><line style="stroke: #A80036; stroke-width: 1.0;" x1="70" x2="202" y1="354.4922" y2="354.4922"/><text fill="#000000" font-family="sans-serif" font-size="13" lengthAdjust="spacingAndGlyphs" textLength="104" x="82" y="349.4263"> handleReceiver</text><!--MD5=[a9dbcd49347f29e1b18629b9b3767232]
@startuml
[->ActivityThread: main
activate ActivityThread
participant ApplicationThread
ActivityThread -> ActivityThread ++: attach
ActivityThread -> ActivityManagerService - -:   attachApplication
deactivate ActivityThread

activate ActivityManagerService
ActivityManagerService -> ActivityManagerService ++: attachApplicationLocked
ActivityManagerService -> BroadcastQueue ++: sendPendingBroadcastsLocked
BroadcastQueue -> BroadcastQueue ++: processCurBroadcastLocked
BroadcastQueue -> ApplicationThread - -: scheduleReceiver
deactivate BroadcastQueue
deactivate ActivityManagerService
deactivate ActivityManagerService
activate ApplicationThread
ApplicationThread - -> ApplicationThread: new ReceiverData
ApplicationThread -> ActivityThread - -:  handleReceiver
deactivate ApplicationThread
deactivate ApplicationThread
@enduml

PlantUML version 1.2020.01beta16(Unknown compile time)
(GPL source distribution)
Java Runtime: Java(TM) SE Runtime Environment
JVM: Java HotSpot(TM) 64-Bit Server VM
Java Version: 1.7.0_25-b15
Operating System: Linux
Default Encoding: UTF-8
Language: en
Country: US
--></g></svg>