<?xml version="1.0" encoding="UTF-8" standalone="no"?><svg xmlns="http://www.w3.org/2000/svg" xmlns:xlink="http://www.w3.org/1999/xlink" contentScriptType="application/ecmascript" contentStyleType="text/css" height="484px" preserveAspectRatio="none" style="width:741px;height:484px;" version="1.1" viewBox="0 0 741 484" width="741px" zoomAndPan="magnify"><defs><filter height="300%" id="f1f8rog4vsnag2" width="300%" x="-1" y="-1"><feGaussianBlur result="blurOut" stdDeviation="2.0"/><feColorMatrix in="blurOut" result="blurOut2" type="matrix" values="0 0 0 0 0 0 0 0 0 0 0 0 0 0 0 0 0 0 .4 0"/><feOffset dx="4.0" dy="4.0" in="blurOut2" result="blurOut3"/><feBlend in="SourceGraphic" in2="blurOut3" mode="normal"/></filter></defs><g><rect fill="#FFFFFF" filter="url(#f1f8rog4vsnag2)" height="71.2656" style="stroke: #A80036; stroke-width: 1.0;" width="10" x="60" y="69.4297"/><rect fill="#FFFFFF" filter="url(#f1f8rog4vsnag2)" height="34.1328" style="stroke: #A80036; stroke-width: 1.0;" width="10" x="65" y="106.5625"/><rect fill="#FFFFFF" filter="url(#f1f8rog4vsnag2)" height="51.1328" style="stroke: #A80036; stroke-width: 1.0;" width="10" x="60" y="383.625"/><rect fill="#FFFFFF" filter="url(#f1f8rog4vsnag2)" height="14" style="stroke: #A80036; stroke-width: 1.0;" width="10" x="65" y="420.7578"/><rect fill="#FFFFFF" filter="url(#f1f8rog4vsnag2)" height="71.2656" style="stroke: #A80036; stroke-width: 1.0;" width="10" x="231" y="312.3594"/><rect fill="#FFFFFF" filter="url(#f1f8rog4vsnag2)" height="171.6641" style="stroke: #A80036; stroke-width: 1.0;" width="10" x="399.5" y="140.6953"/><rect fill="#FFFFFF" filter="url(#f1f8rog4vsnag2)" height="134.5313" style="stroke: #A80036; stroke-width: 1.0;" width="10" x="404.5" y="177.8281"/><rect fill="#FFFFFF" filter="url(#f1f8rog4vsnag2)" height="63.2656" style="stroke: #A80036; stroke-width: 1.0;" width="10" x="409.5" y="219.9609"/><rect fill="#FFFFFF" filter="url(#f1f8rog4vsnag2)" height="29.1328" style="stroke: #A80036; stroke-width: 1.0;" width="10" x="660.5" y="254.0938"/><line style="stroke: #A80036; stroke-width: 1.0; stroke-dasharray: 5.0,5.0;" x1="65" x2="65" y1="38.2969" y2="443.7578"/><line style="stroke: #A80036; stroke-width: 1.0; stroke-dasharray: 5.0,5.0;" x1="236" x2="236" y1="38.2969" y2="443.7578"/><line style="stroke: #A80036; stroke-width: 1.0; stroke-dasharray: 5.0,5.0;" x1="404" x2="404" y1="38.2969" y2="443.7578"/><line style="stroke: #A80036; stroke-width: 1.0; stroke-dasharray: 5.0,5.0;" x1="665" x2="665" y1="38.2969" y2="443.7578"/><rect fill="#FEFECE" filter="url(#f1f8rog4vsnag2)" height="30.2969" style="stroke: #A80036; stroke-width: 1.5;" width="110" x="8" y="3"/><text fill="#000000" font-family="sans-serif" font-size="14" lengthAdjust="spacingAndGlyphs" textLength="96" x="15" y="22.9951">ActivityThread</text><rect fill="#FEFECE" filter="url(#f1f8rog4vsnag2)" height="30.2969" style="stroke: #A80036; stroke-width: 1.5;" width="110" x="8" y="442.7578"/><text fill="#000000" font-family="sans-serif" font-size="14" lengthAdjust="spacingAndGlyphs" textLength="96" x="15" y="462.7529">ActivityThread</text><rect fill="#FEFECE" filter="url(#f1f8rog4vsnag2)" height="30.2969" style="stroke: #A80036; stroke-width: 1.5;" width="138" x="165" y="3"/><text fill="#000000" font-family="sans-serif" font-size="14" lengthAdjust="spacingAndGlyphs" textLength="124" x="172" y="22.9951">ApplicationThread</text><rect fill="#FEFECE" filter="url(#f1f8rog4vsnag2)" height="30.2969" style="stroke: #A80036; stroke-width: 1.5;" width="138" x="165" y="442.7578"/><text fill="#000000" font-family="sans-serif" font-size="14" lengthAdjust="spacingAndGlyphs" textLength="124" x="172" y="462.7529">ApplicationThread</text><rect fill="#FEFECE" filter="url(#f1f8rog4vsnag2)" height="30.2969" style="stroke: #A80036; stroke-width: 1.5;" width="171" x="317" y="3"/><text fill="#000000" font-family="sans-serif" font-size="14" lengthAdjust="spacingAndGlyphs" textLength="157" x="324" y="22.9951">ActivityManagerService</text><rect fill="#FEFECE" filter="url(#f1f8rog4vsnag2)" height="30.2969" style="stroke: #A80036; stroke-width: 1.5;" width="171" x="317" y="442.7578"/><text fill="#000000" font-family="sans-serif" font-size="14" lengthAdjust="spacingAndGlyphs" textLength="157" x="324" y="462.7529">ActivityManagerService</text><rect fill="#FEFECE" filter="url(#f1f8rog4vsnag2)" height="30.2969" style="stroke: #A80036; stroke-width: 1.5;" width="133" x="597" y="3"/><text fill="#000000" font-family="sans-serif" font-size="14" lengthAdjust="spacingAndGlyphs" textLength="119" x="604" y="22.9951">PackageManager</text><rect fill="#FEFECE" filter="url(#f1f8rog4vsnag2)" height="30.2969" style="stroke: #A80036; stroke-width: 1.5;" width="133" x="597" y="442.7578"/><text fill="#000000" font-family="sans-serif" font-size="14" lengthAdjust="spacingAndGlyphs" textLength="119" x="604" y="462.7529">PackageManager</text><rect fill="#FFFFFF" filter="url(#f1f8rog4vsnag2)" height="71.2656" style="stroke: #A80036; stroke-width: 1.0;" width="10" x="60" y="69.4297"/><rect fill="#FFFFFF" filter="url(#f1f8rog4vsnag2)" height="34.1328" style="stroke: #A80036; stroke-width: 1.0;" width="10" x="65" y="106.5625"/><rect fill="#FFFFFF" filter="url(#f1f8rog4vsnag2)" height="51.1328" style="stroke: #A80036; stroke-width: 1.0;" width="10" x="60" y="383.625"/><rect fill="#FFFFFF" filter="url(#f1f8rog4vsnag2)" height="14" style="stroke: #A80036; stroke-width: 1.0;" width="10" x="65" y="420.7578"/><rect fill="#FFFFFF" filter="url(#f1f8rog4vsnag2)" height="71.2656" style="stroke: #A80036; stroke-width: 1.0;" width="10" x="231" y="312.3594"/><rect fill="#FFFFFF" filter="url(#f1f8rog4vsnag2)" height="171.6641" style="stroke: #A80036; stroke-width: 1.0;" width="10" x="399.5" y="140.6953"/><rect fill="#FFFFFF" filter="url(#f1f8rog4vsnag2)" height="134.5313" style="stroke: #A80036; stroke-width: 1.0;" width="10" x="404.5" y="177.8281"/><rect fill="#FFFFFF" filter="url(#f1f8rog4vsnag2)" height="63.2656" style="stroke: #A80036; stroke-width: 1.0;" width="10" x="409.5" y="219.9609"/><rect fill="#FFFFFF" filter="url(#f1f8rog4vsnag2)" height="29.1328" style="stroke: #A80036; stroke-width: 1.0;" width="10" x="660.5" y="254.0938"/><polygon fill="#A80036" points="48,65.4297,58,69.4297,48,73.4297,52,69.4297" style="stroke: #A80036; stroke-width: 1.0;"/><line style="stroke: #A80036; stroke-width: 1.0;" x1="3" x2="54" y1="69.4297" y2="69.4297"/><text fill="#000000" font-family="sans-serif" font-size="13" lengthAdjust="spacingAndGlyphs" textLength="32" x="10" y="64.3638">main</text><line style="stroke: #A80036; stroke-width: 1.0;" x1="70" x2="117" y1="93.5625" y2="93.5625"/><line style="stroke: #A80036; stroke-width: 1.0;" x1="117" x2="117" y1="93.5625" y2="106.5625"/><line style="stroke: #A80036; stroke-width: 1.0;" x1="76" x2="117" y1="106.5625" y2="106.5625"/><polygon fill="#A80036" points="86,102.5625,76,106.5625,86,110.5625,82,106.5625" style="stroke: #A80036; stroke-width: 1.0;"/><text fill="#000000" font-family="sans-serif" font-size="13" lengthAdjust="spacingAndGlyphs" textLength="41" x="82" y="88.4966">attach</text><polygon fill="#A80036" points="387.5,136.6953,397.5,140.6953,387.5,144.6953,391.5,140.6953" style="stroke: #A80036; stroke-width: 1.0;"/><line style="stroke: #A80036; stroke-width: 1.0;" x1="65" x2="393.5" y1="140.6953" y2="140.6953"/><text fill="#000000" font-family="sans-serif" font-size="13" lengthAdjust="spacingAndGlyphs" textLength="125" x="72" y="135.6294">  attachApplication</text><line style="stroke: #A80036; stroke-width: 1.0;" x1="409.5" x2="456.5" y1="164.8281" y2="164.8281"/><line style="stroke: #A80036; stroke-width: 1.0;" x1="456.5" x2="456.5" y1="164.8281" y2="177.8281"/><line style="stroke: #A80036; stroke-width: 1.0;" x1="415.5" x2="456.5" y1="177.8281" y2="177.8281"/><polygon fill="#A80036" points="425.5,173.8281,415.5,177.8281,425.5,181.8281,421.5,177.8281" style="stroke: #A80036; stroke-width: 1.0;"/><text fill="#000000" font-family="sans-serif" font-size="13" lengthAdjust="spacingAndGlyphs" textLength="156" x="421.5" y="159.7622">attachApplicationLocked</text><line style="stroke: #A80036; stroke-width: 1.0;" x1="414.5" x2="461.5" y1="206.9609" y2="206.9609"/><line style="stroke: #A80036; stroke-width: 1.0;" x1="461.5" x2="461.5" y1="206.9609" y2="219.9609"/><line style="stroke: #A80036; stroke-width: 1.0;" x1="420.5" x2="461.5" y1="219.9609" y2="219.9609"/><polygon fill="#A80036" points="430.5,215.9609,420.5,219.9609,430.5,223.9609,426.5,219.9609" style="stroke: #A80036; stroke-width: 1.0;"/><text fill="#000000" font-family="sans-serif" font-size="13" lengthAdjust="spacingAndGlyphs" textLength="232" x="426.5" y="201.895">generateApplicationProvidersLocked</text><polygon fill="#A80036" points="648.5,250.0938,658.5,254.0938,648.5,258.0938,652.5,254.0938" style="stroke: #A80036; stroke-width: 1.0;"/><line style="stroke: #A80036; stroke-width: 1.0;" x1="419.5" x2="654.5" y1="254.0938" y2="254.0938"/><text fill="#000000" font-family="sans-serif" font-size="13" lengthAdjust="spacingAndGlyphs" textLength="146" x="426.5" y="249.0278">queryContentProviders</text><polygon fill="#A80036" points="425.5,279.2266,415.5,283.2266,425.5,287.2266,421.5,283.2266" style="stroke: #A80036; stroke-width: 1.0;"/><line style="stroke: #A80036; stroke-width: 1.0; stroke-dasharray: 2.0,2.0;" x1="419.5" x2="664.5" y1="283.2266" y2="283.2266"/><text fill="#000000" font-family="sans-serif" font-size="13" lengthAdjust="spacingAndGlyphs" textLength="59" x="431.5" y="278.1606">providers</text><polygon fill="#A80036" points="252,308.3594,242,312.3594,252,316.3594,248,312.3594" style="stroke: #A80036; stroke-width: 1.0;"/><line style="stroke: #A80036; stroke-width: 1.0;" x1="246" x2="403.5" y1="312.3594" y2="312.3594"/><text fill="#000000" font-family="sans-serif" font-size="13" lengthAdjust="spacingAndGlyphs" textLength="97" x="258" y="307.2935">bindApplication</text><line style="stroke: #A80036; stroke-width: 1.0; stroke-dasharray: 2.0,2.0;" x1="241" x2="283" y1="341.4922" y2="341.4922"/><line style="stroke: #A80036; stroke-width: 1.0; stroke-dasharray: 2.0,2.0;" x1="283" x2="283" y1="341.4922" y2="354.4922"/><line style="stroke: #A80036; stroke-width: 1.0; stroke-dasharray: 2.0,2.0;" x1="242" x2="283" y1="354.4922" y2="354.4922"/><polygon fill="#A80036" points="252,350.4922,242,354.4922,252,358.4922,248,354.4922" style="stroke: #A80036; stroke-width: 1.0;"/><text fill="#000000" font-family="sans-serif" font-size="13" lengthAdjust="spacingAndGlyphs" textLength="113" x="248" y="336.4263">new AppBindData</text><polygon fill="#A80036" points="81,379.625,71,383.625,81,387.625,77,383.625" style="stroke: #A80036; stroke-width: 1.0;"/><line style="stroke: #A80036; stroke-width: 1.0;" x1="75" x2="235" y1="383.625" y2="383.625"/><text fill="#000000" font-family="sans-serif" font-size="13" lengthAdjust="spacingAndGlyphs" textLength="141" x="87" y="378.5591">handleBindApplication</text><line style="stroke: #A80036; stroke-width: 1.0;" x1="70" x2="117" y1="407.7578" y2="407.7578"/><line style="stroke: #A80036; stroke-width: 1.0;" x1="117" x2="117" y1="407.7578" y2="420.7578"/><line style="stroke: #A80036; stroke-width: 1.0;" x1="76" x2="117" y1="420.7578" y2="420.7578"/><polygon fill="#A80036" points="86,416.7578,76,420.7578,86,424.7578,82,420.7578" style="stroke: #A80036; stroke-width: 1.0;"/><text fill="#000000" font-family="sans-serif" font-size="13" lengthAdjust="spacingAndGlyphs" textLength="147" x="82" y="402.6919">installContentProviders</text><!--MD5=[ab41416e99b01059f0ae6e0409b3e7e5]
@startuml
[->ActivityThread: main
activate ActivityThread
participant ApplicationThread
ActivityThread -> ActivityThread ++: attach
ActivityThread -> ActivityManagerService - -:   attachApplication
deactivate ActivityThread

activate ActivityManagerService
ActivityManagerService -> ActivityManagerService ++: attachApplicationLocked
ActivityManagerService -> ActivityManagerService ++: generateApplicationProvidersLocked
ActivityManagerService -> PackageManager ++: queryContentProviders
return providers
deactivate ActivityManagerService
ActivityManagerService -> ApplicationThread - -: bindApplication

deactivate ActivityManagerService
activate ApplicationThread
ApplicationThread - -> ApplicationThread: new AppBindData
ApplicationThread -> ActivityThread - -: handleBindApplication

activate ActivityThread
ActivityThread -> ActivityThread ++: installContentProviders
@enduml

PlantUML version 1.2020.01beta16(Unknown compile time)
(GPL source distribution)
Java Runtime: Java(TM) SE Runtime Environment
JVM: Java HotSpot(TM) 64-Bit Server VM
Java Version: 1.7.0_25-b15
Operating System: Linux
Default Encoding: UTF-8
Language: en
Country: US
--></g></svg>